%TF.GenerationSoftware,KiCad,Pcbnew,10.0.1*%
%TF.CreationDate,2026-05-21T21:10:22+02:00*%
%TF.ProjectId,GBneprio,47426e65-7072-4696-9f2e-6b696361645f,rev?*%
%TF.SameCoordinates,Original*%
%TF.FileFunction,Copper,L2,Bot*%
%TF.FilePolarity,Positive*%
%FSLAX46Y46*%
G04 Gerber Fmt 4.6, Leading zero omitted, Abs format (unit mm)*
G04 Created by KiCad (PCBNEW 10.0.1) date 2026-05-21 21:10:22*
%MOMM*%
%LPD*%
G01*
G04 APERTURE LIST*
%TA.AperFunction,ComponentPad*%
%ADD10C,2.250000*%
%TD*%
%TA.AperFunction,ViaPad*%
%ADD11C,0.600000*%
%TD*%
%TA.AperFunction,Conductor*%
%ADD12C,0.300000*%
%TD*%
%TA.AperFunction,Conductor*%
%ADD13C,0.200000*%
%TD*%
G04 APERTURE END LIST*
D10*
%TO.P,S1,1,1_1*%
%TO.N,/TCK*%
X155740000Y-70880000D03*
%TO.P,S1,2,2_2*%
%TO.N,GND*%
X158280000Y-72150000D03*
%TO.P,S1,3,3_3*%
%TO.N,/TDO*%
X155740000Y-73420000D03*
%TO.P,S1,4,4_4*%
%TO.N,+5V*%
X158280000Y-74690000D03*
%TO.P,S1,5,5_5*%
%TO.N,/TMS*%
X155740000Y-75960000D03*
%TO.P,S1,6,6_6*%
%TO.N,unconnected-(S1-Pad6)*%
X158280000Y-77230000D03*
%TO.P,S1,7,7_7*%
%TO.N,unconnected-(S1-Pad7)*%
X155740000Y-78500000D03*
%TO.P,S1,8,8_8*%
%TO.N,unconnected-(S1-Pad8)*%
X158280000Y-79770000D03*
%TO.P,S1,9,9_9*%
%TO.N,/TDI*%
X155740000Y-81040000D03*
%TO.P,S1,10,10_10*%
%TO.N,unconnected-(S1-Pad10)*%
X158280000Y-82310000D03*
%TD*%
D11*
%TO.N,+5V*%
X118772000Y-93750000D03*
X138136000Y-93754000D03*
X160630000Y-93780000D03*
X122021000Y-74825500D03*
X116900000Y-74835000D03*
X116590000Y-97470000D03*
%TO.N,GND*%
X141890000Y-88750000D03*
X120720000Y-77880000D03*
X164500000Y-116110000D03*
X117600000Y-90900000D03*
X126850000Y-81520000D03*
X132720000Y-74960000D03*
X130060000Y-66680000D03*
X142560000Y-99610000D03*
X121730000Y-70780000D03*
X139410000Y-75100000D03*
X164500500Y-117060000D03*
%TO.N,/CLK*%
X149510000Y-76600000D03*
X161113424Y-100072689D03*
X119270000Y-103270000D03*
X132175000Y-77200000D03*
%TO.N,/WR*%
X119890000Y-103870000D03*
X160525000Y-100765000D03*
X126541000Y-66079000D03*
X118390000Y-96930000D03*
X122590000Y-96090000D03*
X148290000Y-66530000D03*
%TO.N,/RD*%
X122250000Y-111460000D03*
X147630000Y-70660000D03*
X126850000Y-70755000D03*
X162646000Y-111340000D03*
X137732000Y-98246000D03*
X156649500Y-98247500D03*
%TO.N,/CS*%
X162023000Y-111940000D03*
X127643000Y-71418000D03*
X122873609Y-112060000D03*
X146940000Y-71430000D03*
%TO.N,/A0*%
X124450000Y-102430000D03*
X161328000Y-99302000D03*
X138172000Y-89746000D03*
X151750000Y-89724000D03*
%TO.N,/A1*%
X139831000Y-100821000D03*
X124443337Y-101538808D03*
%TO.N,/A12*%
X126475000Y-77825000D03*
X124600000Y-90250000D03*
%TO.N,/TCK*%
X127950000Y-75090000D03*
%TO.N,/TDO*%
X125149000Y-77204000D03*
%TO.N,/TMS*%
X137653000Y-74172472D03*
%TO.N,/TDI*%
X133227000Y-78000000D03*
%TO.N,/HA4*%
X127686765Y-74334546D03*
X143642000Y-72097000D03*
%TD*%
%TO.N,+5V*%
D12*
X118772000Y-93750000D02*
X138132000Y-93750000D01*
X138136000Y-93754000D02*
X160604000Y-93754000D01*
X160604000Y-93754000D02*
X160630000Y-93780000D01*
X116973000Y-74805000D02*
X122000500Y-74805000D01*
X116590000Y-97470000D02*
X118772000Y-95288000D01*
X138132000Y-93750000D02*
X138136000Y-93754000D01*
X118772000Y-95288000D02*
X118772000Y-93750000D01*
X116927500Y-74850500D02*
X116973000Y-74805000D01*
X122000500Y-74805000D02*
X122021000Y-74825500D01*
%TO.N,/CLK*%
D13*
X144627311Y-100072689D02*
X161113424Y-100072689D01*
X141430000Y-103270000D02*
X144627311Y-100072689D01*
X119270000Y-103270000D02*
X141430000Y-103270000D01*
X133625000Y-77200000D02*
X134225000Y-76600000D01*
X132175000Y-77200000D02*
X133625000Y-77200000D01*
X134225000Y-76600000D02*
X149510000Y-76600000D01*
%TO.N,/WR*%
X132129000Y-66079000D02*
X126541000Y-66079000D01*
X141990000Y-103870000D02*
X119890000Y-103870000D01*
X160525000Y-100765000D02*
X145095000Y-100765000D01*
X148290000Y-66530000D02*
X148240000Y-66580000D01*
X145095000Y-100765000D02*
X141990000Y-103870000D01*
X118390000Y-96930000D02*
X121750000Y-96930000D01*
X132630000Y-66580000D02*
X132129000Y-66079000D01*
X121750000Y-96930000D02*
X122590000Y-96090000D01*
X148240000Y-66580000D02*
X132630000Y-66580000D01*
%TO.N,/RD*%
X162646000Y-111340000D02*
X146110000Y-111340000D01*
X137733500Y-98247500D02*
X137732000Y-98246000D01*
X137480000Y-113430000D02*
X135510000Y-111460000D01*
X126850000Y-70755000D02*
X147535000Y-70755000D01*
X156649500Y-98247500D02*
X137733500Y-98247500D01*
X135510000Y-111460000D02*
X122250000Y-111460000D01*
X146110000Y-111340000D02*
X144020000Y-113430000D01*
X144020000Y-113430000D02*
X137480000Y-113430000D01*
X147535000Y-70755000D02*
X147630000Y-70660000D01*
%TO.N,/CS*%
X127643000Y-71418000D02*
X146928000Y-71418000D01*
X135160000Y-112060000D02*
X122873609Y-112060000D01*
X137030000Y-113930000D02*
X135160000Y-112060000D01*
X162023000Y-111940000D02*
X146460000Y-111940000D01*
X146460000Y-111940000D02*
X144470000Y-113930000D01*
X146928000Y-71418000D02*
X146940000Y-71430000D01*
X144470000Y-113930000D02*
X137030000Y-113930000D01*
%TO.N,/A0*%
X151750000Y-89724000D02*
X138194000Y-89724000D01*
X144518000Y-99302000D02*
X141390000Y-102430000D01*
X138194000Y-89724000D02*
X138172000Y-89746000D01*
X161328000Y-99302000D02*
X144518000Y-99302000D01*
X141390000Y-102430000D02*
X124450000Y-102430000D01*
%TO.N,/A1*%
X139111000Y-101538000D02*
X139828000Y-100821000D01*
X139828000Y-100821000D02*
X139831000Y-100821000D01*
X124443337Y-101538808D02*
X124444145Y-101538000D01*
X124444145Y-101538000D02*
X139111000Y-101538000D01*
%TO.N,/A12*%
X124600000Y-79700000D02*
X126475000Y-77825000D01*
X124600000Y-90250000D02*
X124600000Y-79700000D01*
%TO.N,/TCK*%
X151070000Y-72780000D02*
X152970000Y-70880000D01*
X131061501Y-72778499D02*
X149581501Y-72778499D01*
X128750000Y-75090000D02*
X131061501Y-72778499D01*
X149581501Y-72778499D02*
X149583002Y-72780000D01*
X127950000Y-75090000D02*
X128750000Y-75090000D01*
X152970000Y-70880000D02*
X155740000Y-70880000D01*
X149583002Y-72780000D02*
X151070000Y-72780000D01*
%TO.N,/TDO*%
X131710000Y-73420000D02*
X155740000Y-73420000D01*
X127926000Y-77204000D02*
X131710000Y-73420000D01*
X125149000Y-77204000D02*
X127926000Y-77204000D01*
%TO.N,/TMS*%
X137653000Y-74172472D02*
X151112472Y-74172472D01*
X152920000Y-75980000D02*
X152940000Y-75960000D01*
X152940000Y-75960000D02*
X155740000Y-75960000D01*
X151112472Y-74172472D02*
X152920000Y-75980000D01*
%TO.N,/TDI*%
X133227000Y-78000000D02*
X146951000Y-78000000D01*
X146951000Y-78000000D02*
X146963000Y-77988000D01*
X146963000Y-77988000D02*
X150015000Y-81040000D01*
X150015000Y-81040000D02*
X155740000Y-81040000D01*
%TO.N,/HA4*%
X128765454Y-74334546D02*
X131003000Y-72097000D01*
X127686765Y-74334546D02*
X128765454Y-74334546D01*
X131003000Y-72097000D02*
X143642000Y-72097000D01*
%TD*%
%TA.AperFunction,Conductor*%
%TO.N,GND*%
G36*
X161457422Y-64296280D02*
G01*
X161474378Y-64298190D01*
X161547768Y-64306458D01*
X161574833Y-64312636D01*
X161654039Y-64340351D01*
X161679049Y-64352395D01*
X161750106Y-64397043D01*
X161771813Y-64414355D01*
X161831144Y-64473686D01*
X161848457Y-64495395D01*
X161893102Y-64566447D01*
X161905149Y-64591464D01*
X161932862Y-64670662D01*
X161939041Y-64697734D01*
X161949219Y-64788072D01*
X161949220Y-64788076D01*
X161950000Y-64801959D01*
X161950000Y-65682534D01*
X161978737Y-65845510D01*
X161980400Y-65854938D01*
X162031039Y-65994068D01*
X162040274Y-66019439D01*
X162040278Y-66019449D01*
X162127809Y-66171057D01*
X162240336Y-66305163D01*
X162374442Y-66417690D01*
X162374443Y-66417691D01*
X162374445Y-66417692D01*
X162526055Y-66505224D01*
X162690562Y-66565100D01*
X162862966Y-66595500D01*
X162884608Y-66595500D01*
X166376000Y-66595500D01*
X166443039Y-66615185D01*
X166488794Y-66667989D01*
X166500000Y-66719500D01*
X166500000Y-83493170D01*
X166480315Y-83560209D01*
X166438001Y-83600557D01*
X166301409Y-83679419D01*
X166161943Y-83796443D01*
X166044917Y-83935911D01*
X165953886Y-84093581D01*
X165953883Y-84093588D01*
X165891613Y-84264671D01*
X165859999Y-84443967D01*
X165859999Y-84443970D01*
X165860000Y-84495499D01*
X165860000Y-85655000D01*
X165859999Y-85746028D01*
X165859999Y-85746032D01*
X165891613Y-85925328D01*
X165953883Y-86096411D01*
X165953886Y-86096418D01*
X166044917Y-86254088D01*
X166161943Y-86393556D01*
X166301411Y-86510582D01*
X166301412Y-86510583D01*
X166301414Y-86510584D01*
X166438002Y-86589443D01*
X166486215Y-86640008D01*
X166500000Y-86696828D01*
X166500000Y-115070500D01*
X166480315Y-115137539D01*
X166427511Y-115183294D01*
X166376000Y-115194500D01*
X165876579Y-115194500D01*
X165731595Y-115223339D01*
X165731583Y-115223342D01*
X165595007Y-115279913D01*
X165595004Y-115279915D01*
X165472085Y-115362046D01*
X165472078Y-115362052D01*
X165367552Y-115466578D01*
X165367546Y-115466585D01*
X165285415Y-115589504D01*
X165285413Y-115589507D01*
X165228842Y-115726083D01*
X165228839Y-115726095D01*
X165200000Y-115871079D01*
X165200000Y-122929184D01*
X165199983Y-122929252D01*
X165200000Y-122988208D01*
X165200000Y-122989769D01*
X165199998Y-122989775D01*
X165199531Y-123000540D01*
X165185810Y-123157902D01*
X165182063Y-123179190D01*
X165142629Y-123326532D01*
X165135242Y-123346845D01*
X165070822Y-123485099D01*
X165060021Y-123503821D01*
X164972570Y-123628790D01*
X164958684Y-123645348D01*
X164850857Y-123753237D01*
X164834305Y-123767135D01*
X164709391Y-123854656D01*
X164690675Y-123865469D01*
X164655721Y-123881781D01*
X164552453Y-123929971D01*
X164532147Y-123937369D01*
X164384832Y-123976888D01*
X164363545Y-123980648D01*
X164206208Y-123994458D01*
X164195364Y-123994933D01*
X117874815Y-123994060D01*
X117874472Y-123994038D01*
X117866685Y-123994040D01*
X117850050Y-123994044D01*
X117806201Y-123994057D01*
X117795396Y-123993588D01*
X117638034Y-123979867D01*
X117616746Y-123976120D01*
X117469404Y-123936686D01*
X117449091Y-123929299D01*
X117310837Y-123864879D01*
X117292115Y-123854078D01*
X117167140Y-123766623D01*
X117150588Y-123752741D01*
X117042699Y-123644914D01*
X117028801Y-123628362D01*
X116941275Y-123503440D01*
X116930470Y-123484738D01*
X116865960Y-123346500D01*
X116858570Y-123326212D01*
X116819047Y-123178884D01*
X116815289Y-123157609D01*
X116801473Y-123000228D01*
X116801000Y-122989430D01*
X116801000Y-115879108D01*
X116801000Y-115871084D01*
X116772159Y-115726088D01*
X116772157Y-115726083D01*
X116715586Y-115589507D01*
X116715584Y-115589504D01*
X116633453Y-115466585D01*
X116633447Y-115466578D01*
X116528921Y-115362052D01*
X116528914Y-115362046D01*
X116405995Y-115279915D01*
X116405992Y-115279913D01*
X116269416Y-115223342D01*
X116269404Y-115223339D01*
X116124420Y-115194500D01*
X116124416Y-115194500D01*
X116116392Y-115194500D01*
X115625000Y-115194500D01*
X115557961Y-115174815D01*
X115512206Y-115122011D01*
X115501000Y-115070500D01*
X115501000Y-103191153D01*
X118469500Y-103191153D01*
X118469500Y-103348846D01*
X118500261Y-103503489D01*
X118500264Y-103503501D01*
X118560602Y-103649172D01*
X118560609Y-103649185D01*
X118648210Y-103780288D01*
X118648213Y-103780292D01*
X118759707Y-103891786D01*
X118759711Y-103891789D01*
X118890814Y-103979390D01*
X118890827Y-103979397D01*
X118978230Y-104015599D01*
X119036503Y-104039737D01*
X119036510Y-104039738D01*
X119042336Y-104041506D01*
X119041786Y-104043317D01*
X119095892Y-104071608D01*
X119124366Y-104113403D01*
X119180602Y-104249172D01*
X119180609Y-104249185D01*
X119268210Y-104380288D01*
X119268213Y-104380292D01*
X119379707Y-104491786D01*
X119379711Y-104491789D01*
X119510814Y-104579390D01*
X119510827Y-104579397D01*
X119589894Y-104612147D01*
X119656503Y-104639737D01*
X119811153Y-104670499D01*
X119811156Y-104670500D01*
X119811158Y-104670500D01*
X119968844Y-104670500D01*
X119968845Y-104670499D01*
X120123497Y-104639737D01*
X120269179Y-104579394D01*
X120323663Y-104542989D01*
X120400875Y-104491398D01*
X120467553Y-104470520D01*
X120469766Y-104470500D01*
X140546832Y-104470500D01*
X140613871Y-104490185D01*
X140659626Y-104542989D01*
X140669570Y-104612147D01*
X140640545Y-104675703D01*
X140581767Y-104713477D01*
X140558986Y-104717903D01*
X140390771Y-104734470D01*
X140390754Y-104734473D01*
X139990815Y-104814024D01*
X139990804Y-104814027D01*
X139600551Y-104932409D01*
X139223799Y-105088465D01*
X139223785Y-105088472D01*
X138864154Y-105280697D01*
X138864136Y-105280708D01*
X138525077Y-105507261D01*
X138525063Y-105507271D01*
X138209827Y-105765978D01*
X137921478Y-106054327D01*
X137662771Y-106369563D01*
X137662761Y-106369577D01*
X137436208Y-106708636D01*
X137436197Y-106708654D01*
X137243972Y-107068285D01*
X137243965Y-107068299D01*
X137087909Y-107445051D01*
X136969527Y-107835304D01*
X136969524Y-107835315D01*
X136889973Y-108235254D01*
X136889970Y-108235271D01*
X136850000Y-108641102D01*
X136850000Y-109048897D01*
X136889970Y-109454728D01*
X136889973Y-109454745D01*
X136969524Y-109854684D01*
X136969527Y-109854695D01*
X137087909Y-110244948D01*
X137243965Y-110621700D01*
X137243968Y-110621707D01*
X137248725Y-110630606D01*
X137436197Y-110981345D01*
X137436208Y-110981363D01*
X137662761Y-111320422D01*
X137662771Y-111320436D01*
X137921478Y-111635672D01*
X138209827Y-111924021D01*
X138209832Y-111924025D01*
X138209833Y-111924026D01*
X138525069Y-112182733D01*
X138864143Y-112409296D01*
X138864152Y-112409301D01*
X138864154Y-112409302D01*
X139213709Y-112596142D01*
X139263553Y-112645104D01*
X139279014Y-112713242D01*
X139255183Y-112778921D01*
X139199625Y-112821290D01*
X139155256Y-112829500D01*
X137780098Y-112829500D01*
X137713059Y-112809815D01*
X137692417Y-112793181D01*
X135997590Y-111098355D01*
X135997588Y-111098352D01*
X135878717Y-110979481D01*
X135878716Y-110979480D01*
X135784926Y-110925331D01*
X135784925Y-110925330D01*
X135741783Y-110900422D01*
X135685881Y-110885443D01*
X135589057Y-110859499D01*
X135430943Y-110859499D01*
X135423347Y-110859499D01*
X135423331Y-110859500D01*
X122829766Y-110859500D01*
X122762727Y-110839815D01*
X122760875Y-110838602D01*
X122629185Y-110750609D01*
X122629172Y-110750602D01*
X122483501Y-110690264D01*
X122483489Y-110690261D01*
X122328845Y-110659500D01*
X122328842Y-110659500D01*
X122171158Y-110659500D01*
X122171155Y-110659500D01*
X122016510Y-110690261D01*
X122016498Y-110690264D01*
X121870827Y-110750602D01*
X121870814Y-110750609D01*
X121739711Y-110838210D01*
X121739707Y-110838213D01*
X121628213Y-110949707D01*
X121628210Y-110949711D01*
X121540609Y-111080814D01*
X121540602Y-111080827D01*
X121480264Y-111226498D01*
X121480261Y-111226510D01*
X121449500Y-111381153D01*
X121449500Y-111538846D01*
X121480261Y-111693489D01*
X121480264Y-111693501D01*
X121540602Y-111839172D01*
X121540609Y-111839185D01*
X121628210Y-111970288D01*
X121628213Y-111970292D01*
X121739707Y-112081786D01*
X121739711Y-112081789D01*
X121870814Y-112169390D01*
X121870827Y-112169397D01*
X121938961Y-112197618D01*
X122016503Y-112229737D01*
X122017927Y-112230020D01*
X122018604Y-112230374D01*
X122022338Y-112231507D01*
X122022123Y-112232214D01*
X122079839Y-112262404D01*
X122108299Y-112304186D01*
X122164211Y-112439172D01*
X122164218Y-112439185D01*
X122251819Y-112570288D01*
X122251822Y-112570292D01*
X122363316Y-112681786D01*
X122363320Y-112681789D01*
X122494423Y-112769390D01*
X122494436Y-112769397D01*
X122619719Y-112821290D01*
X122640112Y-112829737D01*
X122794762Y-112860499D01*
X122794765Y-112860500D01*
X122794767Y-112860500D01*
X122952453Y-112860500D01*
X122952454Y-112860499D01*
X123107106Y-112829737D01*
X123252788Y-112769394D01*
X123252794Y-112769390D01*
X123384484Y-112681398D01*
X123451162Y-112660520D01*
X123453375Y-112660500D01*
X134859903Y-112660500D01*
X134926942Y-112680185D01*
X134947584Y-112696819D01*
X136545139Y-114294374D01*
X136545149Y-114294385D01*
X136549479Y-114298715D01*
X136549480Y-114298716D01*
X136661284Y-114410520D01*
X136661286Y-114410521D01*
X136661290Y-114410524D01*
X136798209Y-114489573D01*
X136798216Y-114489577D01*
X136910019Y-114519534D01*
X136950942Y-114530500D01*
X136950943Y-114530500D01*
X144383331Y-114530500D01*
X144383347Y-114530501D01*
X144390943Y-114530501D01*
X144549054Y-114530501D01*
X144549057Y-114530501D01*
X144701785Y-114489577D01*
X144751904Y-114460639D01*
X144838716Y-114410520D01*
X144950520Y-114298716D01*
X144950520Y-114298714D01*
X144960728Y-114288507D01*
X144960729Y-114288504D01*
X146672416Y-112576819D01*
X146733739Y-112543334D01*
X146760097Y-112540500D01*
X161443234Y-112540500D01*
X161510273Y-112560185D01*
X161512125Y-112561398D01*
X161643814Y-112649390D01*
X161643827Y-112649397D01*
X161758316Y-112696819D01*
X161789503Y-112709737D01*
X161944153Y-112740499D01*
X161944156Y-112740500D01*
X161944158Y-112740500D01*
X162101844Y-112740500D01*
X162101845Y-112740499D01*
X162256497Y-112709737D01*
X162402179Y-112649394D01*
X162533289Y-112561789D01*
X162644789Y-112450289D01*
X162732394Y-112319179D01*
X162788364Y-112184053D01*
X162832204Y-112129650D01*
X162873809Y-112111981D01*
X162873665Y-112111506D01*
X162878090Y-112110163D01*
X162878739Y-112109888D01*
X162879492Y-112109738D01*
X162879492Y-112109737D01*
X162879497Y-112109737D01*
X163025179Y-112049394D01*
X163156289Y-111961789D01*
X163267789Y-111850289D01*
X163355394Y-111719179D01*
X163415737Y-111573497D01*
X163446500Y-111418842D01*
X163446500Y-111261158D01*
X163446500Y-111261155D01*
X163446499Y-111261153D01*
X163415738Y-111106510D01*
X163415737Y-111106503D01*
X163363903Y-110981363D01*
X163355397Y-110960827D01*
X163355390Y-110960814D01*
X163267789Y-110829711D01*
X163267786Y-110829707D01*
X163156292Y-110718213D01*
X163156288Y-110718210D01*
X163025185Y-110630609D01*
X163025172Y-110630602D01*
X162879501Y-110570264D01*
X162879489Y-110570261D01*
X162724845Y-110539500D01*
X162724842Y-110539500D01*
X162567158Y-110539500D01*
X162567155Y-110539500D01*
X162412510Y-110570261D01*
X162412498Y-110570264D01*
X162266827Y-110630602D01*
X162266814Y-110630609D01*
X162135125Y-110718602D01*
X162068447Y-110739480D01*
X162066234Y-110739500D01*
X146030940Y-110739500D01*
X145990019Y-110750464D01*
X145990019Y-110750465D01*
X145952751Y-110760451D01*
X145878214Y-110780423D01*
X145878209Y-110780426D01*
X145741290Y-110859475D01*
X145741282Y-110859481D01*
X145629478Y-110971286D01*
X143807584Y-112793181D01*
X143746261Y-112826666D01*
X143719903Y-112829500D01*
X142845744Y-112829500D01*
X142778705Y-112809815D01*
X142732950Y-112757011D01*
X142723006Y-112687853D01*
X142752031Y-112624297D01*
X142787291Y-112596142D01*
X142891390Y-112540500D01*
X143136857Y-112409296D01*
X143475931Y-112182733D01*
X143791167Y-111924026D01*
X144079526Y-111635667D01*
X144338233Y-111320431D01*
X144564796Y-110981357D01*
X144757032Y-110621707D01*
X144913091Y-110244947D01*
X145031470Y-109854705D01*
X145031472Y-109854695D01*
X145031475Y-109854684D01*
X145071648Y-109652711D01*
X145111028Y-109454739D01*
X145151000Y-109048901D01*
X145151000Y-108641099D01*
X145111028Y-108235261D01*
X145081360Y-108086111D01*
X145031475Y-107835315D01*
X145031472Y-107835304D01*
X145031471Y-107835301D01*
X145031470Y-107835295D01*
X144913091Y-107445053D01*
X144757032Y-107068293D01*
X144564796Y-106708643D01*
X144338233Y-106369569D01*
X144079526Y-106054333D01*
X144079525Y-106054332D01*
X144079521Y-106054327D01*
X143791172Y-105765978D01*
X143475936Y-105507271D01*
X143475935Y-105507270D01*
X143475931Y-105507267D01*
X143136857Y-105280704D01*
X143136852Y-105280701D01*
X143136845Y-105280697D01*
X142777214Y-105088472D01*
X142777207Y-105088468D01*
X142777200Y-105088465D01*
X142400448Y-104932409D01*
X142010195Y-104814027D01*
X142010184Y-104814024D01*
X141610245Y-104734473D01*
X141610228Y-104734470D01*
X141442014Y-104717903D01*
X141377227Y-104691742D01*
X141336868Y-104634708D01*
X141333751Y-104564908D01*
X141368865Y-104504503D01*
X141431063Y-104472672D01*
X141454168Y-104470500D01*
X141903331Y-104470500D01*
X141903347Y-104470501D01*
X141910943Y-104470501D01*
X142069054Y-104470501D01*
X142069057Y-104470501D01*
X142221785Y-104429577D01*
X142271904Y-104400639D01*
X142358716Y-104350520D01*
X142470520Y-104238716D01*
X142470520Y-104238714D01*
X142480728Y-104228507D01*
X142480729Y-104228504D01*
X145307416Y-101401819D01*
X145368739Y-101368334D01*
X145395097Y-101365500D01*
X159945234Y-101365500D01*
X160012273Y-101385185D01*
X160014125Y-101386398D01*
X160145814Y-101474390D01*
X160145827Y-101474397D01*
X160281008Y-101530390D01*
X160291503Y-101534737D01*
X160446153Y-101565499D01*
X160446156Y-101565500D01*
X160446158Y-101565500D01*
X160603844Y-101565500D01*
X160603845Y-101565499D01*
X160758497Y-101534737D01*
X160904179Y-101474394D01*
X161035289Y-101386789D01*
X161146789Y-101275289D01*
X161234394Y-101144179D01*
X161294737Y-100998497D01*
X161310953Y-100916970D01*
X161343336Y-100855064D01*
X161385112Y-100826606D01*
X161492603Y-100782083D01*
X161623713Y-100694478D01*
X161735213Y-100582978D01*
X161822818Y-100451868D01*
X161826983Y-100441814D01*
X161836491Y-100418855D01*
X161883161Y-100306186D01*
X161913924Y-100151531D01*
X161913924Y-99993847D01*
X161902682Y-99937332D01*
X161908909Y-99867741D01*
X161936616Y-99825461D01*
X161949789Y-99812289D01*
X162037394Y-99681179D01*
X162097737Y-99535497D01*
X162128500Y-99380842D01*
X162128500Y-99223158D01*
X162128500Y-99223155D01*
X162128499Y-99223153D01*
X162097738Y-99068510D01*
X162097737Y-99068503D01*
X162065074Y-98989647D01*
X162037397Y-98922827D01*
X162037390Y-98922814D01*
X161949789Y-98791711D01*
X161949786Y-98791707D01*
X161838292Y-98680213D01*
X161838288Y-98680210D01*
X161707185Y-98592609D01*
X161707172Y-98592602D01*
X161561501Y-98532264D01*
X161561489Y-98532261D01*
X161406845Y-98501500D01*
X161406842Y-98501500D01*
X161249158Y-98501500D01*
X161249155Y-98501500D01*
X161094510Y-98532261D01*
X161094498Y-98532264D01*
X160948827Y-98592602D01*
X160948814Y-98592609D01*
X160817125Y-98680602D01*
X160750447Y-98701480D01*
X160748234Y-98701500D01*
X157513481Y-98701500D01*
X157446442Y-98681815D01*
X157400687Y-98629011D01*
X157390743Y-98559853D01*
X157398920Y-98530048D01*
X157419235Y-98481001D01*
X157419237Y-98480997D01*
X157450000Y-98326342D01*
X157450000Y-98168658D01*
X157450000Y-98168655D01*
X157449999Y-98168653D01*
X157419238Y-98014010D01*
X157419237Y-98014003D01*
X157405272Y-97980288D01*
X157358897Y-97868327D01*
X157358890Y-97868314D01*
X157271289Y-97737211D01*
X157271286Y-97737207D01*
X157159792Y-97625713D01*
X157159788Y-97625710D01*
X157028685Y-97538109D01*
X157028672Y-97538102D01*
X156883001Y-97477764D01*
X156882989Y-97477761D01*
X156728345Y-97447000D01*
X156728342Y-97447000D01*
X156570658Y-97447000D01*
X156570655Y-97447000D01*
X156416010Y-97477761D01*
X156415998Y-97477764D01*
X156270327Y-97538102D01*
X156270314Y-97538109D01*
X156138625Y-97626102D01*
X156071947Y-97646980D01*
X156069734Y-97647000D01*
X138314011Y-97647000D01*
X138246972Y-97627315D01*
X138245120Y-97626102D01*
X138111185Y-97536609D01*
X138111172Y-97536602D01*
X137965501Y-97476264D01*
X137965489Y-97476261D01*
X137810845Y-97445500D01*
X137810842Y-97445500D01*
X137653158Y-97445500D01*
X137653155Y-97445500D01*
X137498510Y-97476261D01*
X137498498Y-97476264D01*
X137352827Y-97536602D01*
X137352814Y-97536609D01*
X137221711Y-97624210D01*
X137221707Y-97624213D01*
X137110213Y-97735707D01*
X137110210Y-97735711D01*
X137022609Y-97866814D01*
X137022602Y-97866827D01*
X136962264Y-98012498D01*
X136962261Y-98012510D01*
X136931500Y-98167153D01*
X136931500Y-98324846D01*
X136962261Y-98479489D01*
X136962264Y-98479501D01*
X137022602Y-98625172D01*
X137022609Y-98625185D01*
X137110210Y-98756288D01*
X137110213Y-98756292D01*
X137221707Y-98867786D01*
X137221711Y-98867789D01*
X137352814Y-98955390D01*
X137352827Y-98955397D01*
X137498498Y-99015735D01*
X137498503Y-99015737D01*
X137653153Y-99046499D01*
X137653156Y-99046500D01*
X137653158Y-99046500D01*
X137810844Y-99046500D01*
X137810845Y-99046499D01*
X137965497Y-99015737D01*
X138111179Y-98955394D01*
X138159928Y-98922821D01*
X138240630Y-98868898D01*
X138307308Y-98848020D01*
X138309521Y-98848000D01*
X143823402Y-98848000D01*
X143890441Y-98867685D01*
X143936196Y-98920489D01*
X143946140Y-98989647D01*
X143917115Y-99053203D01*
X143911083Y-99059681D01*
X141177584Y-101793181D01*
X141116261Y-101826666D01*
X141089903Y-101829500D01*
X140111462Y-101829500D01*
X140044423Y-101809815D01*
X139998668Y-101757011D01*
X139988724Y-101687853D01*
X140017749Y-101624297D01*
X140064010Y-101590939D01*
X140210172Y-101530397D01*
X140210172Y-101530396D01*
X140210179Y-101530394D01*
X140341289Y-101442789D01*
X140452789Y-101331289D01*
X140540394Y-101200179D01*
X140600737Y-101054497D01*
X140631500Y-100899842D01*
X140631500Y-100742158D01*
X140631500Y-100742155D01*
X140631499Y-100742153D01*
X140600738Y-100587510D01*
X140600738Y-100587508D01*
X140600737Y-100587503D01*
X140598862Y-100582977D01*
X140540397Y-100441827D01*
X140540390Y-100441814D01*
X140452789Y-100310711D01*
X140452786Y-100310707D01*
X140341292Y-100199213D01*
X140341288Y-100199210D01*
X140210185Y-100111609D01*
X140210172Y-100111602D01*
X140064501Y-100051264D01*
X140064489Y-100051261D01*
X139909845Y-100020500D01*
X139909842Y-100020500D01*
X139752158Y-100020500D01*
X139752155Y-100020500D01*
X139597510Y-100051261D01*
X139597498Y-100051264D01*
X139451827Y-100111602D01*
X139451814Y-100111609D01*
X139320711Y-100199210D01*
X139320707Y-100199213D01*
X139209213Y-100310707D01*
X139209210Y-100310711D01*
X139121609Y-100441814D01*
X139121602Y-100441827D01*
X139061264Y-100587498D01*
X139061261Y-100587508D01*
X139031106Y-100739105D01*
X139022340Y-100755862D01*
X139018321Y-100774339D01*
X138999576Y-100799380D01*
X138998721Y-100801016D01*
X138997171Y-100802594D01*
X138898582Y-100901182D01*
X138837262Y-100934666D01*
X138810903Y-100937500D01*
X125021893Y-100937500D01*
X124954854Y-100917815D01*
X124953002Y-100916602D01*
X124822522Y-100829417D01*
X124822509Y-100829410D01*
X124676838Y-100769072D01*
X124676826Y-100769069D01*
X124522182Y-100738308D01*
X124522179Y-100738308D01*
X124364495Y-100738308D01*
X124364492Y-100738308D01*
X124209847Y-100769069D01*
X124209835Y-100769072D01*
X124064164Y-100829410D01*
X124064151Y-100829417D01*
X123933048Y-100917018D01*
X123933044Y-100917021D01*
X123821550Y-101028515D01*
X123821547Y-101028519D01*
X123733946Y-101159622D01*
X123733939Y-101159635D01*
X123673601Y-101305306D01*
X123673598Y-101305318D01*
X123642837Y-101459961D01*
X123642837Y-101617654D01*
X123673598Y-101772297D01*
X123673601Y-101772309D01*
X123733939Y-101917979D01*
X123733941Y-101917983D01*
X123733943Y-101917987D01*
X123733946Y-101917991D01*
X123733948Y-101917995D01*
X123735800Y-101920767D01*
X123736323Y-101922440D01*
X123736816Y-101923361D01*
X123736641Y-101923454D01*
X123756677Y-101987445D01*
X123742775Y-102045126D01*
X123742937Y-102045193D01*
X123742512Y-102046217D01*
X123742058Y-102048104D01*
X123740605Y-102050821D01*
X123680264Y-102196498D01*
X123680261Y-102196510D01*
X123649500Y-102351153D01*
X123649500Y-102508841D01*
X123651980Y-102521310D01*
X123645751Y-102590901D01*
X123602888Y-102646078D01*
X123536998Y-102669322D01*
X123530362Y-102669500D01*
X119849766Y-102669500D01*
X119782727Y-102649815D01*
X119780875Y-102648602D01*
X119649185Y-102560609D01*
X119649172Y-102560602D01*
X119503501Y-102500264D01*
X119503489Y-102500261D01*
X119348845Y-102469500D01*
X119348842Y-102469500D01*
X119191158Y-102469500D01*
X119191155Y-102469500D01*
X119036510Y-102500261D01*
X119036498Y-102500264D01*
X118890827Y-102560602D01*
X118890814Y-102560609D01*
X118759711Y-102648210D01*
X118759707Y-102648213D01*
X118648213Y-102759707D01*
X118648210Y-102759711D01*
X118560609Y-102890814D01*
X118560602Y-102890827D01*
X118500264Y-103036498D01*
X118500261Y-103036510D01*
X118469500Y-103191153D01*
X115501000Y-103191153D01*
X115501000Y-97391153D01*
X115789500Y-97391153D01*
X115789500Y-97548846D01*
X115820261Y-97703489D01*
X115820264Y-97703501D01*
X115880602Y-97849172D01*
X115880609Y-97849185D01*
X115968210Y-97980288D01*
X115968213Y-97980292D01*
X116079707Y-98091786D01*
X116079711Y-98091789D01*
X116210814Y-98179390D01*
X116210827Y-98179397D01*
X116356498Y-98239735D01*
X116356503Y-98239737D01*
X116511153Y-98270499D01*
X116511156Y-98270500D01*
X116511158Y-98270500D01*
X116668844Y-98270500D01*
X116668845Y-98270499D01*
X116823497Y-98239737D01*
X116969179Y-98179394D01*
X117100289Y-98091789D01*
X117211789Y-97980289D01*
X117299394Y-97849179D01*
X117359737Y-97703497D01*
X117373079Y-97636416D01*
X117381844Y-97619661D01*
X117385864Y-97601183D01*
X117404606Y-97576146D01*
X117405463Y-97574509D01*
X117406959Y-97572985D01*
X117569826Y-97410118D01*
X117631147Y-97376635D01*
X117700839Y-97381619D01*
X117756772Y-97423491D01*
X117760606Y-97428908D01*
X117768211Y-97440290D01*
X117879707Y-97551786D01*
X117879711Y-97551789D01*
X118010814Y-97639390D01*
X118010827Y-97639397D01*
X118156498Y-97699735D01*
X118156503Y-97699737D01*
X118311153Y-97730499D01*
X118311156Y-97730500D01*
X118311158Y-97730500D01*
X118468844Y-97730500D01*
X118468845Y-97730499D01*
X118623497Y-97699737D01*
X118769179Y-97639394D01*
X118773630Y-97636420D01*
X118900875Y-97551398D01*
X118967553Y-97530520D01*
X118969766Y-97530500D01*
X121663331Y-97530500D01*
X121663347Y-97530501D01*
X121670943Y-97530501D01*
X121829054Y-97530501D01*
X121829057Y-97530501D01*
X121981785Y-97489577D01*
X122058128Y-97445500D01*
X122118716Y-97410520D01*
X122230520Y-97298716D01*
X122230520Y-97298714D01*
X122240724Y-97288511D01*
X122240727Y-97288506D01*
X122604662Y-96924572D01*
X122665983Y-96891089D01*
X122668150Y-96890638D01*
X122726085Y-96879113D01*
X122823497Y-96859737D01*
X122969179Y-96799394D01*
X123100289Y-96711789D01*
X123211789Y-96600289D01*
X123299394Y-96469179D01*
X123359737Y-96323497D01*
X123390500Y-96168842D01*
X123390500Y-96011158D01*
X123390500Y-96011155D01*
X123390499Y-96011153D01*
X123359738Y-95856510D01*
X123359738Y-95856508D01*
X123359737Y-95856503D01*
X123359735Y-95856498D01*
X123299397Y-95710827D01*
X123299390Y-95710814D01*
X123211789Y-95579711D01*
X123211786Y-95579707D01*
X123100292Y-95468213D01*
X123100288Y-95468210D01*
X122969185Y-95380609D01*
X122969172Y-95380602D01*
X122823501Y-95320264D01*
X122823489Y-95320261D01*
X122668845Y-95289500D01*
X122668842Y-95289500D01*
X122511158Y-95289500D01*
X122511155Y-95289500D01*
X122356510Y-95320261D01*
X122356498Y-95320264D01*
X122210827Y-95380602D01*
X122210814Y-95380609D01*
X122079711Y-95468210D01*
X122079707Y-95468213D01*
X121968213Y-95579707D01*
X121968210Y-95579711D01*
X121880609Y-95710814D01*
X121880602Y-95710827D01*
X121820264Y-95856498D01*
X121820261Y-95856508D01*
X121789361Y-96011850D01*
X121756976Y-96073761D01*
X121755425Y-96075339D01*
X121537584Y-96293181D01*
X121476261Y-96326666D01*
X121449903Y-96329500D01*
X118969766Y-96329500D01*
X118951620Y-96324171D01*
X118932711Y-96323834D01*
X118904498Y-96310335D01*
X118902727Y-96309815D01*
X118900874Y-96308601D01*
X118888909Y-96300606D01*
X118844104Y-96246993D01*
X118835398Y-96177668D01*
X118865554Y-96114641D01*
X118870079Y-96109865D01*
X119277277Y-95702669D01*
X119348465Y-95596127D01*
X119397501Y-95477744D01*
X119416823Y-95380606D01*
X119422500Y-95352069D01*
X119422500Y-94524500D01*
X119442185Y-94457461D01*
X119494989Y-94411706D01*
X119546500Y-94400500D01*
X137625079Y-94400500D01*
X137692118Y-94420185D01*
X137693916Y-94421362D01*
X137756821Y-94463394D01*
X137756823Y-94463395D01*
X137756827Y-94463397D01*
X137902498Y-94523735D01*
X137902503Y-94523737D01*
X138033203Y-94549735D01*
X138057153Y-94554499D01*
X138057156Y-94554500D01*
X138057158Y-94554500D01*
X138214844Y-94554500D01*
X138214845Y-94554499D01*
X138369497Y-94523737D01*
X138515179Y-94463394D01*
X138572044Y-94425397D01*
X138638721Y-94404520D01*
X138640935Y-94404500D01*
X160086153Y-94404500D01*
X160153192Y-94424185D01*
X160155044Y-94425398D01*
X160250814Y-94489390D01*
X160250827Y-94489397D01*
X160396498Y-94549735D01*
X160396503Y-94549737D01*
X160551153Y-94580499D01*
X160551156Y-94580500D01*
X160551158Y-94580500D01*
X160708844Y-94580500D01*
X160708845Y-94580499D01*
X160863497Y-94549737D01*
X161009179Y-94489394D01*
X161140289Y-94401789D01*
X161251789Y-94290289D01*
X161339394Y-94159179D01*
X161399737Y-94013497D01*
X161430500Y-93858842D01*
X161430500Y-93701158D01*
X161430500Y-93701155D01*
X161430499Y-93701153D01*
X161399738Y-93546510D01*
X161399737Y-93546503D01*
X161387309Y-93516498D01*
X161339397Y-93400827D01*
X161339390Y-93400814D01*
X161251789Y-93269711D01*
X161251786Y-93269707D01*
X161140292Y-93158213D01*
X161140288Y-93158210D01*
X161009185Y-93070609D01*
X161009172Y-93070602D01*
X160863501Y-93010264D01*
X160863489Y-93010261D01*
X160708845Y-92979500D01*
X160708842Y-92979500D01*
X160551158Y-92979500D01*
X160551155Y-92979500D01*
X160396510Y-93010261D01*
X160396498Y-93010264D01*
X160250827Y-93070602D01*
X160250815Y-93070609D01*
X160232867Y-93082602D01*
X160166190Y-93103480D01*
X160163976Y-93103500D01*
X138640935Y-93103500D01*
X138573896Y-93083815D01*
X138572090Y-93082633D01*
X138515179Y-93044606D01*
X138515172Y-93044602D01*
X138369501Y-92984264D01*
X138369489Y-92984261D01*
X138214845Y-92953500D01*
X138214842Y-92953500D01*
X138057158Y-92953500D01*
X138057155Y-92953500D01*
X137902510Y-92984261D01*
X137902498Y-92984264D01*
X137756828Y-93044602D01*
X137756810Y-93044612D01*
X137705941Y-93078602D01*
X137639264Y-93099480D01*
X137637051Y-93099500D01*
X119276935Y-93099500D01*
X119209896Y-93079815D01*
X119208090Y-93078633D01*
X119151179Y-93040606D01*
X119151172Y-93040602D01*
X119005501Y-92980264D01*
X119005489Y-92980261D01*
X118850845Y-92949500D01*
X118850842Y-92949500D01*
X118693158Y-92949500D01*
X118693155Y-92949500D01*
X118538510Y-92980261D01*
X118538498Y-92980264D01*
X118392827Y-93040602D01*
X118392814Y-93040609D01*
X118261711Y-93128210D01*
X118261707Y-93128213D01*
X118150213Y-93239707D01*
X118150210Y-93239711D01*
X118062609Y-93370814D01*
X118062602Y-93370827D01*
X118002264Y-93516498D01*
X118002261Y-93516510D01*
X117971500Y-93671153D01*
X117971500Y-93828846D01*
X118002261Y-93983489D01*
X118002264Y-93983501D01*
X118062602Y-94129172D01*
X118062606Y-94129179D01*
X118100602Y-94186044D01*
X118121480Y-94252721D01*
X118121500Y-94254935D01*
X118121500Y-94967191D01*
X118101815Y-95034230D01*
X118085181Y-95054872D01*
X116487068Y-96652984D01*
X116425745Y-96686469D01*
X116423579Y-96686920D01*
X116356508Y-96700261D01*
X116356498Y-96700264D01*
X116210827Y-96760602D01*
X116210814Y-96760609D01*
X116079711Y-96848210D01*
X116079707Y-96848213D01*
X115968213Y-96959707D01*
X115968210Y-96959711D01*
X115880609Y-97090814D01*
X115880602Y-97090827D01*
X115820264Y-97236498D01*
X115820261Y-97236510D01*
X115789500Y-97391153D01*
X115501000Y-97391153D01*
X115501000Y-90171153D01*
X123799500Y-90171153D01*
X123799500Y-90328846D01*
X123830261Y-90483489D01*
X123830264Y-90483501D01*
X123890602Y-90629172D01*
X123890609Y-90629185D01*
X123978210Y-90760288D01*
X123978213Y-90760292D01*
X124089707Y-90871786D01*
X124089711Y-90871789D01*
X124220814Y-90959390D01*
X124220827Y-90959397D01*
X124366498Y-91019735D01*
X124366503Y-91019737D01*
X124521153Y-91050499D01*
X124521156Y-91050500D01*
X124521158Y-91050500D01*
X124678844Y-91050500D01*
X124678845Y-91050499D01*
X124833497Y-91019737D01*
X124979179Y-90959394D01*
X125110289Y-90871789D01*
X125221789Y-90760289D01*
X125309394Y-90629179D01*
X125369737Y-90483497D01*
X125400500Y-90328842D01*
X125400500Y-90171158D01*
X125400500Y-90171155D01*
X125400499Y-90171153D01*
X125386978Y-90103179D01*
X125369737Y-90016503D01*
X125369735Y-90016498D01*
X125309397Y-89870827D01*
X125309390Y-89870814D01*
X125221398Y-89739125D01*
X125215747Y-89721078D01*
X125205523Y-89705169D01*
X125201071Y-89674207D01*
X125200520Y-89672447D01*
X125200500Y-89670234D01*
X125200500Y-89667153D01*
X137371500Y-89667153D01*
X137371500Y-89824846D01*
X137402261Y-89979489D01*
X137402264Y-89979501D01*
X137462602Y-90125172D01*
X137462609Y-90125185D01*
X137550210Y-90256288D01*
X137550213Y-90256292D01*
X137661707Y-90367786D01*
X137661711Y-90367789D01*
X137792814Y-90455390D01*
X137792827Y-90455397D01*
X137885392Y-90493738D01*
X137938503Y-90515737D01*
X138093153Y-90546499D01*
X138093156Y-90546500D01*
X138093158Y-90546500D01*
X138250844Y-90546500D01*
X138250845Y-90546499D01*
X138405497Y-90515737D01*
X138551179Y-90455394D01*
X138682289Y-90367789D01*
X138682292Y-90367786D01*
X138689260Y-90360819D01*
X138750583Y-90327334D01*
X138776941Y-90324500D01*
X151170234Y-90324500D01*
X151237273Y-90344185D01*
X151239125Y-90345398D01*
X151370814Y-90433390D01*
X151370827Y-90433397D01*
X151491762Y-90483489D01*
X151516503Y-90493737D01*
X151627094Y-90515735D01*
X151671153Y-90524499D01*
X151671156Y-90524500D01*
X151671158Y-90524500D01*
X151828844Y-90524500D01*
X151828845Y-90524499D01*
X151983497Y-90493737D01*
X152129179Y-90433394D01*
X152260289Y-90345789D01*
X152371789Y-90234289D01*
X152459394Y-90103179D01*
X152519737Y-89957497D01*
X152550500Y-89802842D01*
X152550500Y-89645158D01*
X152550500Y-89645155D01*
X152550499Y-89645153D01*
X152519738Y-89490510D01*
X152519737Y-89490503D01*
X152519735Y-89490498D01*
X152459397Y-89344827D01*
X152459390Y-89344814D01*
X152371789Y-89213711D01*
X152371786Y-89213707D01*
X152260292Y-89102213D01*
X152260288Y-89102210D01*
X152129185Y-89014609D01*
X152129172Y-89014602D01*
X151983501Y-88954264D01*
X151983489Y-88954261D01*
X151828845Y-88923500D01*
X151828842Y-88923500D01*
X151671158Y-88923500D01*
X151671155Y-88923500D01*
X151516510Y-88954261D01*
X151516498Y-88954264D01*
X151370827Y-89014602D01*
X151370814Y-89014609D01*
X151239125Y-89102602D01*
X151172447Y-89123480D01*
X151170234Y-89123500D01*
X138718840Y-89123500D01*
X138651801Y-89103815D01*
X138649949Y-89102602D01*
X138551185Y-89036609D01*
X138551172Y-89036602D01*
X138405501Y-88976264D01*
X138405489Y-88976261D01*
X138250845Y-88945500D01*
X138250842Y-88945500D01*
X138093158Y-88945500D01*
X138093155Y-88945500D01*
X137938510Y-88976261D01*
X137938498Y-88976264D01*
X137792827Y-89036602D01*
X137792814Y-89036609D01*
X137661711Y-89124210D01*
X137661707Y-89124213D01*
X137550213Y-89235707D01*
X137550210Y-89235711D01*
X137462609Y-89366814D01*
X137462602Y-89366827D01*
X137402264Y-89512498D01*
X137402261Y-89512510D01*
X137371500Y-89667153D01*
X125200500Y-89667153D01*
X125200500Y-83499038D01*
X139400000Y-83499038D01*
X139400000Y-83546750D01*
X139400000Y-83750962D01*
X139422889Y-83895474D01*
X139439410Y-83999785D01*
X139517260Y-84239383D01*
X139561615Y-84326433D01*
X139630382Y-84461396D01*
X139631632Y-84463848D01*
X139779701Y-84667649D01*
X139779705Y-84667654D01*
X139957845Y-84845794D01*
X139957850Y-84845798D01*
X140074524Y-84930566D01*
X140161655Y-84993870D01*
X140253172Y-85040500D01*
X140386116Y-85108239D01*
X140386118Y-85108239D01*
X140386121Y-85108241D01*
X140625715Y-85186090D01*
X140874538Y-85225500D01*
X140874539Y-85225500D01*
X141126461Y-85225500D01*
X141126462Y-85225500D01*
X141375285Y-85186090D01*
X141614879Y-85108241D01*
X141839345Y-84993870D01*
X142043156Y-84845793D01*
X142221293Y-84667656D01*
X142369370Y-84463845D01*
X142483741Y-84239379D01*
X142561590Y-83999785D01*
X142601000Y-83750962D01*
X142601000Y-83499038D01*
X142561590Y-83250215D01*
X142483741Y-83010621D01*
X142483739Y-83010618D01*
X142483739Y-83010616D01*
X142442247Y-82929184D01*
X142369370Y-82786155D01*
X142350452Y-82760117D01*
X142221298Y-82582350D01*
X142221294Y-82582345D01*
X142043154Y-82404205D01*
X142043149Y-82404201D01*
X141839348Y-82256132D01*
X141839347Y-82256131D01*
X141839345Y-82256130D01*
X141769247Y-82220413D01*
X141614883Y-82141760D01*
X141375285Y-82063910D01*
X141126462Y-82024500D01*
X140874538Y-82024500D01*
X140750126Y-82044205D01*
X140625714Y-82063910D01*
X140386116Y-82141760D01*
X140161651Y-82256132D01*
X139957850Y-82404201D01*
X139957845Y-82404205D01*
X139779705Y-82582345D01*
X139779701Y-82582350D01*
X139631632Y-82786151D01*
X139517260Y-83010616D01*
X139439410Y-83250214D01*
X139420606Y-83368935D01*
X139400000Y-83499038D01*
X125200500Y-83499038D01*
X125200500Y-80000097D01*
X125220185Y-79933058D01*
X125236819Y-79912416D01*
X125817953Y-79331282D01*
X126489662Y-78659572D01*
X126550983Y-78626089D01*
X126553150Y-78625638D01*
X126611085Y-78614113D01*
X126708497Y-78594737D01*
X126854179Y-78534394D01*
X126985289Y-78446789D01*
X127096789Y-78335289D01*
X127184394Y-78204179D01*
X127244737Y-78058497D01*
X127255478Y-78004499D01*
X127275408Y-77904308D01*
X127307793Y-77842397D01*
X127368509Y-77807823D01*
X127397025Y-77804500D01*
X127839331Y-77804500D01*
X127839347Y-77804501D01*
X127846943Y-77804501D01*
X128005054Y-77804501D01*
X128005057Y-77804501D01*
X128157785Y-77763577D01*
X128207904Y-77734639D01*
X128294716Y-77684520D01*
X128406520Y-77572716D01*
X128406520Y-77572714D01*
X128416728Y-77562507D01*
X128416729Y-77562504D01*
X131922416Y-74056819D01*
X131983739Y-74023334D01*
X132010097Y-74020500D01*
X136728500Y-74020500D01*
X136795539Y-74040185D01*
X136841294Y-74092989D01*
X136852500Y-74144500D01*
X136852500Y-74251318D01*
X136883261Y-74405961D01*
X136883264Y-74405973D01*
X136943602Y-74551644D01*
X136943609Y-74551657D01*
X137031210Y-74682760D01*
X137031213Y-74682764D01*
X137142707Y-74794258D01*
X137142711Y-74794261D01*
X137273814Y-74881862D01*
X137273827Y-74881869D01*
X137419498Y-74942207D01*
X137419503Y-74942209D01*
X137574153Y-74972971D01*
X137574156Y-74972972D01*
X137574158Y-74972972D01*
X137731844Y-74972972D01*
X137731845Y-74972971D01*
X137886497Y-74942209D01*
X138032179Y-74881866D01*
X138032185Y-74881862D01*
X138163875Y-74793870D01*
X138230553Y-74772992D01*
X138232766Y-74772972D01*
X150812375Y-74772972D01*
X150879414Y-74792657D01*
X150900055Y-74809290D01*
X151726263Y-75635499D01*
X152551282Y-76460518D01*
X152551284Y-76460520D01*
X152638095Y-76510639D01*
X152638097Y-76510641D01*
X152676151Y-76532611D01*
X152688215Y-76539577D01*
X152840943Y-76580501D01*
X152840946Y-76580501D01*
X152999056Y-76580501D01*
X152999058Y-76580501D01*
X153057933Y-76564724D01*
X153090027Y-76560500D01*
X154145642Y-76560500D01*
X154212681Y-76580185D01*
X154256125Y-76628203D01*
X154289504Y-76693711D01*
X154349750Y-76811950D01*
X154500132Y-77018935D01*
X154500136Y-77018940D01*
X154623515Y-77142319D01*
X154657000Y-77203642D01*
X154652016Y-77273334D01*
X154623515Y-77317681D01*
X154500136Y-77441059D01*
X154500132Y-77441064D01*
X154349750Y-77648049D01*
X154233589Y-77876024D01*
X154233588Y-77876027D01*
X154154526Y-78119359D01*
X154127667Y-78288940D01*
X154114500Y-78372070D01*
X154114500Y-78627930D01*
X154127667Y-78711059D01*
X154154526Y-78880640D01*
X154233588Y-79123972D01*
X154233589Y-79123975D01*
X154349750Y-79351950D01*
X154500132Y-79558935D01*
X154500136Y-79558940D01*
X154623515Y-79682319D01*
X154657000Y-79743642D01*
X154652016Y-79813334D01*
X154623515Y-79857681D01*
X154500136Y-79981059D01*
X154500132Y-79981064D01*
X154349750Y-80188049D01*
X154349748Y-80188053D01*
X154256125Y-80371796D01*
X154208152Y-80422591D01*
X154145642Y-80439500D01*
X150315098Y-80439500D01*
X150248059Y-80419815D01*
X150227417Y-80403181D01*
X147450590Y-77626355D01*
X147450588Y-77626352D01*
X147331718Y-77507482D01*
X147331716Y-77507480D01*
X147210488Y-77437489D01*
X147200785Y-77431887D01*
X147152570Y-77381319D01*
X147139348Y-77312712D01*
X147165316Y-77247848D01*
X147222230Y-77207320D01*
X147262786Y-77200500D01*
X148930234Y-77200500D01*
X148997273Y-77220185D01*
X148999125Y-77221398D01*
X149130814Y-77309390D01*
X149130827Y-77309397D01*
X149247998Y-77357930D01*
X149276503Y-77369737D01*
X149426131Y-77399500D01*
X149431153Y-77400499D01*
X149431156Y-77400500D01*
X149431158Y-77400500D01*
X149588844Y-77400500D01*
X149588845Y-77400499D01*
X149743497Y-77369737D01*
X149889179Y-77309394D01*
X150020289Y-77221789D01*
X150131789Y-77110289D01*
X150219394Y-76979179D01*
X150279737Y-76833497D01*
X150310500Y-76678842D01*
X150310500Y-76521158D01*
X150310500Y-76521155D01*
X150310499Y-76521153D01*
X150298438Y-76460518D01*
X150279737Y-76366503D01*
X150223728Y-76231284D01*
X150219397Y-76220827D01*
X150219390Y-76220814D01*
X150131789Y-76089711D01*
X150131786Y-76089707D01*
X150020292Y-75978213D01*
X150020288Y-75978210D01*
X149889185Y-75890609D01*
X149889172Y-75890602D01*
X149743501Y-75830264D01*
X149743489Y-75830261D01*
X149588845Y-75799500D01*
X149588842Y-75799500D01*
X149431158Y-75799500D01*
X149431155Y-75799500D01*
X149276510Y-75830261D01*
X149276498Y-75830264D01*
X149130827Y-75890602D01*
X149130814Y-75890609D01*
X148999125Y-75978602D01*
X148932447Y-75999480D01*
X148930234Y-75999500D01*
X134304057Y-75999500D01*
X134145943Y-75999500D01*
X133993215Y-76040423D01*
X133967759Y-76055120D01*
X133960937Y-76059059D01*
X133960936Y-76059058D01*
X133856287Y-76119477D01*
X133856282Y-76119481D01*
X133754950Y-76220814D01*
X133744480Y-76231284D01*
X133744478Y-76231286D01*
X133572265Y-76403500D01*
X133412584Y-76563181D01*
X133351261Y-76596666D01*
X133324903Y-76599500D01*
X132754766Y-76599500D01*
X132687727Y-76579815D01*
X132685875Y-76578602D01*
X132554185Y-76490609D01*
X132554172Y-76490602D01*
X132408501Y-76430264D01*
X132408489Y-76430261D01*
X132253845Y-76399500D01*
X132253842Y-76399500D01*
X132096158Y-76399500D01*
X132096155Y-76399500D01*
X131941510Y-76430261D01*
X131941498Y-76430264D01*
X131795827Y-76490602D01*
X131795814Y-76490609D01*
X131664711Y-76578210D01*
X131664707Y-76578213D01*
X131553213Y-76689707D01*
X131553210Y-76689711D01*
X131465609Y-76820814D01*
X131465602Y-76820827D01*
X131405264Y-76966498D01*
X131405261Y-76966510D01*
X131374500Y-77121153D01*
X131374500Y-77278846D01*
X131405261Y-77433489D01*
X131405264Y-77433501D01*
X131465602Y-77579172D01*
X131465609Y-77579185D01*
X131553210Y-77710288D01*
X131553213Y-77710292D01*
X131664707Y-77821786D01*
X131664711Y-77821789D01*
X131795814Y-77909390D01*
X131795827Y-77909397D01*
X131941498Y-77969735D01*
X131941503Y-77969737D01*
X132066678Y-77994636D01*
X132096153Y-78000499D01*
X132096156Y-78000500D01*
X132096158Y-78000500D01*
X132253842Y-78000500D01*
X132283320Y-77994636D01*
X132352909Y-78000862D01*
X132408088Y-78043724D01*
X132429129Y-78092062D01*
X132457261Y-78233489D01*
X132457264Y-78233501D01*
X132517602Y-78379172D01*
X132517609Y-78379185D01*
X132605210Y-78510288D01*
X132605213Y-78510292D01*
X132716707Y-78621786D01*
X132716711Y-78621789D01*
X132847814Y-78709390D01*
X132847827Y-78709397D01*
X132993498Y-78769735D01*
X132993503Y-78769737D01*
X133148153Y-78800499D01*
X133148156Y-78800500D01*
X133148158Y-78800500D01*
X133305844Y-78800500D01*
X133305845Y-78800499D01*
X133460497Y-78769737D01*
X133602147Y-78711064D01*
X133606172Y-78709397D01*
X133606172Y-78709396D01*
X133606179Y-78709394D01*
X133680740Y-78659574D01*
X133737875Y-78621398D01*
X133804553Y-78600520D01*
X133806766Y-78600500D01*
X146674903Y-78600500D01*
X146741942Y-78620185D01*
X146762583Y-78636818D01*
X149646284Y-81520520D01*
X149783215Y-81599577D01*
X149935943Y-81640501D01*
X149935946Y-81640501D01*
X150101654Y-81640501D01*
X150101670Y-81640500D01*
X154145642Y-81640500D01*
X154212681Y-81660185D01*
X154256125Y-81708203D01*
X154349748Y-81891947D01*
X154349750Y-81891950D01*
X154500132Y-82098935D01*
X154500136Y-82098940D01*
X154500138Y-82098942D01*
X154681058Y-82279862D01*
X154681061Y-82279864D01*
X154684763Y-82283026D01*
X154683320Y-82284715D01*
X154720372Y-82332707D01*
X154726392Y-82402317D01*
X154693822Y-82464131D01*
X154692529Y-82465444D01*
X154595482Y-82562491D01*
X154456657Y-82753566D01*
X154349433Y-82964003D01*
X154276446Y-83188631D01*
X154239500Y-83421902D01*
X154239500Y-83658097D01*
X154276446Y-83891368D01*
X154349433Y-84115996D01*
X154444368Y-84302314D01*
X154456657Y-84326433D01*
X154595483Y-84517510D01*
X154762490Y-84684517D01*
X154953567Y-84823343D01*
X155052991Y-84874002D01*
X155164003Y-84930566D01*
X155164005Y-84930566D01*
X155164008Y-84930568D01*
X155284412Y-84969689D01*
X155388631Y-85003553D01*
X155621903Y-85040500D01*
X155621908Y-85040500D01*
X155858097Y-85040500D01*
X156091368Y-85003553D01*
X156121178Y-84993867D01*
X156315992Y-84930568D01*
X156526433Y-84823343D01*
X156717510Y-84684517D01*
X156884517Y-84517510D01*
X157023343Y-84326433D01*
X157130568Y-84115992D01*
X157203553Y-83891368D01*
X157222212Y-83773556D01*
X157252141Y-83710422D01*
X157311452Y-83673490D01*
X157381315Y-83674488D01*
X157417572Y-83692637D01*
X157428051Y-83700251D01*
X157656024Y-83816410D01*
X157656027Y-83816411D01*
X157773006Y-83854419D01*
X157899361Y-83895474D01*
X158152070Y-83935500D01*
X158152071Y-83935500D01*
X158407929Y-83935500D01*
X158407930Y-83935500D01*
X158660639Y-83895474D01*
X158903975Y-83816410D01*
X159131947Y-83700252D01*
X159338942Y-83549862D01*
X159519862Y-83368942D01*
X159670252Y-83161947D01*
X159786410Y-82933975D01*
X159865474Y-82690639D01*
X159905500Y-82437930D01*
X159905500Y-82182070D01*
X159865474Y-81929361D01*
X159786410Y-81686025D01*
X159786410Y-81686024D01*
X159742361Y-81599575D01*
X159670252Y-81458053D01*
X159651038Y-81431607D01*
X159519867Y-81251064D01*
X159519863Y-81251059D01*
X159396485Y-81127681D01*
X159363000Y-81066358D01*
X159367984Y-80996666D01*
X159396485Y-80952319D01*
X159519862Y-80828942D01*
X159670252Y-80621947D01*
X159786410Y-80393975D01*
X159865474Y-80150639D01*
X159905500Y-79897930D01*
X159905500Y-79642070D01*
X159865474Y-79389361D01*
X159786410Y-79146025D01*
X159786410Y-79146024D01*
X159746185Y-79067080D01*
X159670252Y-78918053D01*
X159584845Y-78800500D01*
X159519867Y-78711064D01*
X159519863Y-78711059D01*
X159396485Y-78587681D01*
X159363000Y-78526358D01*
X159367984Y-78456666D01*
X159396485Y-78412319D01*
X159436734Y-78372070D01*
X159519862Y-78288942D01*
X159670252Y-78081947D01*
X159786410Y-77853975D01*
X159865474Y-77610639D01*
X159905500Y-77357930D01*
X159905500Y-77102070D01*
X159865474Y-76849361D01*
X159810070Y-76678844D01*
X159786411Y-76606027D01*
X159786410Y-76606024D01*
X159712270Y-76460518D01*
X159670252Y-76378053D01*
X159563619Y-76231284D01*
X159519867Y-76171064D01*
X159519863Y-76171059D01*
X159396485Y-76047681D01*
X159363000Y-75986358D01*
X159367984Y-75916666D01*
X159396485Y-75872319D01*
X159438543Y-75830261D01*
X159519862Y-75748942D01*
X159670252Y-75541947D01*
X159786410Y-75313975D01*
X159865474Y-75070639D01*
X159905500Y-74817930D01*
X159905500Y-74562070D01*
X159865474Y-74309361D01*
X159797790Y-74101049D01*
X159786411Y-74066027D01*
X159786410Y-74066024D01*
X159730023Y-73955360D01*
X159670252Y-73838053D01*
X159591685Y-73729914D01*
X159519867Y-73631064D01*
X159519863Y-73631059D01*
X159338940Y-73450136D01*
X159338935Y-73450132D01*
X159131948Y-73299748D01*
X159035772Y-73250743D01*
X159004387Y-73227940D01*
X158604025Y-72827578D01*
X158635258Y-72814641D01*
X158758097Y-72732563D01*
X158862563Y-72628097D01*
X158944641Y-72505258D01*
X158957577Y-72474025D01*
X159592148Y-73108596D01*
X159592148Y-73108595D01*
X159669825Y-73001685D01*
X159785947Y-72773784D01*
X159785948Y-72773781D01*
X159864986Y-72530523D01*
X159905000Y-72277889D01*
X159905000Y-72022110D01*
X159864986Y-71769476D01*
X159785948Y-71526218D01*
X159785947Y-71526215D01*
X159669824Y-71298313D01*
X159592148Y-71191403D01*
X159592148Y-71191402D01*
X158957577Y-71825973D01*
X158944641Y-71794742D01*
X158862563Y-71671903D01*
X158758097Y-71567437D01*
X158635258Y-71485359D01*
X158604024Y-71472421D01*
X159251152Y-70825294D01*
X159255662Y-70803825D01*
X159277236Y-70774791D01*
X159313185Y-70738842D01*
X159424517Y-70627510D01*
X159563343Y-70436433D01*
X159670568Y-70225992D01*
X159743553Y-70001368D01*
X159750976Y-69954500D01*
X159780500Y-69768097D01*
X159780500Y-69531902D01*
X159743553Y-69298631D01*
X159670566Y-69074003D01*
X159563342Y-68863566D01*
X159424517Y-68672490D01*
X159257510Y-68505483D01*
X159066433Y-68366657D01*
X158855996Y-68259433D01*
X158631368Y-68186446D01*
X158398097Y-68149500D01*
X158398092Y-68149500D01*
X158161908Y-68149500D01*
X158161903Y-68149500D01*
X157928631Y-68186446D01*
X157704003Y-68259433D01*
X157493566Y-68366657D01*
X157384550Y-68445862D01*
X157302490Y-68505483D01*
X157302488Y-68505485D01*
X157302487Y-68505485D01*
X157135485Y-68672487D01*
X157135485Y-68672488D01*
X157135483Y-68672490D01*
X157075862Y-68754550D01*
X156996657Y-68863566D01*
X156889433Y-69074003D01*
X156816446Y-69298631D01*
X156797787Y-69416443D01*
X156767858Y-69479578D01*
X156708546Y-69516509D01*
X156638683Y-69515511D01*
X156602428Y-69497363D01*
X156591947Y-69489748D01*
X156363975Y-69373589D01*
X156363972Y-69373588D01*
X156120640Y-69294526D01*
X155994284Y-69274513D01*
X155867930Y-69254500D01*
X155612070Y-69254500D01*
X155527833Y-69267842D01*
X155359359Y-69294526D01*
X155116027Y-69373588D01*
X155116024Y-69373589D01*
X154888049Y-69489750D01*
X154681064Y-69640132D01*
X154681059Y-69640136D01*
X154500136Y-69821059D01*
X154500132Y-69821064D01*
X154349750Y-70028049D01*
X154349748Y-70028053D01*
X154256125Y-70211796D01*
X154208152Y-70262591D01*
X154145642Y-70279500D01*
X153056670Y-70279500D01*
X153056654Y-70279499D01*
X153049058Y-70279499D01*
X152890943Y-70279499D01*
X152814579Y-70299961D01*
X152738214Y-70320423D01*
X152738209Y-70320426D01*
X152601290Y-70399475D01*
X152601282Y-70399481D01*
X150857584Y-72143181D01*
X150796261Y-72176666D01*
X150769903Y-72179500D01*
X149680094Y-72179500D01*
X149679089Y-72179496D01*
X149665744Y-72179387D01*
X149660558Y-72177998D01*
X149502444Y-72177998D01*
X149502440Y-72177999D01*
X147623442Y-72177999D01*
X147556403Y-72158314D01*
X147510648Y-72105510D01*
X147500704Y-72036352D01*
X147529729Y-71972796D01*
X147535761Y-71966318D01*
X147561786Y-71940292D01*
X147561789Y-71940289D01*
X147649394Y-71809179D01*
X147709737Y-71663497D01*
X147735652Y-71533212D01*
X147768036Y-71471302D01*
X147828752Y-71436728D01*
X147833029Y-71435797D01*
X147863497Y-71429737D01*
X148009179Y-71369394D01*
X148140289Y-71281789D01*
X148251789Y-71170289D01*
X148339394Y-71039179D01*
X148399737Y-70893497D01*
X148430500Y-70738842D01*
X148430500Y-70581158D01*
X148430500Y-70581155D01*
X148430499Y-70581153D01*
X148399738Y-70426510D01*
X148399737Y-70426503D01*
X148388542Y-70399475D01*
X148339397Y-70280827D01*
X148339390Y-70280814D01*
X148251789Y-70149711D01*
X148251786Y-70149707D01*
X148140292Y-70038213D01*
X148140288Y-70038210D01*
X148009185Y-69950609D01*
X148009172Y-69950602D01*
X147863501Y-69890264D01*
X147863489Y-69890261D01*
X147708845Y-69859500D01*
X147708842Y-69859500D01*
X147551158Y-69859500D01*
X147551155Y-69859500D01*
X147396510Y-69890261D01*
X147396498Y-69890264D01*
X147250827Y-69950602D01*
X147250814Y-69950609D01*
X147119712Y-70038209D01*
X147079727Y-70078195D01*
X147039739Y-70118182D01*
X146978419Y-70151666D01*
X146952060Y-70154500D01*
X127429766Y-70154500D01*
X127362727Y-70134815D01*
X127360875Y-70133602D01*
X127229185Y-70045609D01*
X127229172Y-70045602D01*
X127083501Y-69985264D01*
X127083489Y-69985261D01*
X126928845Y-69954500D01*
X126928842Y-69954500D01*
X126771158Y-69954500D01*
X126771155Y-69954500D01*
X126616510Y-69985261D01*
X126616498Y-69985264D01*
X126470827Y-70045602D01*
X126470814Y-70045609D01*
X126339711Y-70133210D01*
X126339707Y-70133213D01*
X126228213Y-70244707D01*
X126228210Y-70244711D01*
X126140609Y-70375814D01*
X126140602Y-70375827D01*
X126080264Y-70521498D01*
X126080261Y-70521510D01*
X126049500Y-70676153D01*
X126049500Y-70833846D01*
X126080261Y-70988489D01*
X126080264Y-70988501D01*
X126140602Y-71134172D01*
X126140609Y-71134185D01*
X126228210Y-71265288D01*
X126228213Y-71265292D01*
X126339707Y-71376786D01*
X126339711Y-71376789D01*
X126470814Y-71464390D01*
X126470827Y-71464397D01*
X126597387Y-71516819D01*
X126616503Y-71524737D01*
X126720121Y-71545348D01*
X126776325Y-71556528D01*
X126838236Y-71588913D01*
X126870690Y-71645905D01*
X126871493Y-71645662D01*
X126872566Y-71649200D01*
X126872810Y-71649628D01*
X126873098Y-71650954D01*
X126873263Y-71651498D01*
X126933602Y-71797172D01*
X126933609Y-71797185D01*
X127021210Y-71928288D01*
X127021213Y-71928292D01*
X127132707Y-72039786D01*
X127132711Y-72039789D01*
X127263814Y-72127390D01*
X127263827Y-72127397D01*
X127385993Y-72177999D01*
X127409503Y-72187737D01*
X127564153Y-72218499D01*
X127564156Y-72218500D01*
X127564158Y-72218500D01*
X127721844Y-72218500D01*
X127721845Y-72218499D01*
X127876497Y-72187737D01*
X128022179Y-72127394D01*
X128027794Y-72123642D01*
X128153875Y-72039398D01*
X128220553Y-72018520D01*
X128222766Y-72018500D01*
X129932903Y-72018500D01*
X129999942Y-72038185D01*
X130045697Y-72090989D01*
X130055641Y-72160147D01*
X130026616Y-72223703D01*
X130020584Y-72230181D01*
X128553038Y-73697727D01*
X128526110Y-73712430D01*
X128500292Y-73729023D01*
X128494091Y-73729914D01*
X128491715Y-73731212D01*
X128465357Y-73734046D01*
X128266531Y-73734046D01*
X128199492Y-73714361D01*
X128197640Y-73713148D01*
X128065950Y-73625155D01*
X128065937Y-73625148D01*
X127920266Y-73564810D01*
X127920254Y-73564807D01*
X127765610Y-73534046D01*
X127765607Y-73534046D01*
X127607923Y-73534046D01*
X127607920Y-73534046D01*
X127453275Y-73564807D01*
X127453263Y-73564810D01*
X127307592Y-73625148D01*
X127307579Y-73625155D01*
X127176476Y-73712756D01*
X127176472Y-73712759D01*
X127064978Y-73824253D01*
X127064975Y-73824257D01*
X126977374Y-73955360D01*
X126977367Y-73955373D01*
X126917029Y-74101044D01*
X126917026Y-74101056D01*
X126886265Y-74255699D01*
X126886265Y-74413392D01*
X126917026Y-74568035D01*
X126917029Y-74568047D01*
X126977367Y-74713718D01*
X126977374Y-74713731D01*
X127064975Y-74844834D01*
X127064978Y-74844838D01*
X127116203Y-74896062D01*
X127149689Y-74957385D01*
X127150142Y-75007928D01*
X127149500Y-75011156D01*
X127149500Y-75168846D01*
X127180261Y-75323489D01*
X127180264Y-75323501D01*
X127240602Y-75469172D01*
X127240609Y-75469185D01*
X127328210Y-75600288D01*
X127328213Y-75600292D01*
X127439707Y-75711786D01*
X127439711Y-75711789D01*
X127570814Y-75799390D01*
X127570827Y-75799397D01*
X127645348Y-75830264D01*
X127716503Y-75859737D01*
X127852210Y-75886731D01*
X127871153Y-75890499D01*
X127871156Y-75890500D01*
X127871158Y-75890500D01*
X128028843Y-75890500D01*
X128041664Y-75887949D01*
X128079089Y-75880505D01*
X128148679Y-75886731D01*
X128203856Y-75929594D01*
X128227102Y-75995483D01*
X128211035Y-76063480D01*
X128190961Y-76089803D01*
X127713584Y-76567181D01*
X127652261Y-76600666D01*
X127625903Y-76603500D01*
X125728766Y-76603500D01*
X125661727Y-76583815D01*
X125659875Y-76582602D01*
X125528185Y-76494609D01*
X125528172Y-76494602D01*
X125382501Y-76434264D01*
X125382489Y-76434261D01*
X125227845Y-76403500D01*
X125227842Y-76403500D01*
X125070158Y-76403500D01*
X125070155Y-76403500D01*
X124915510Y-76434261D01*
X124915498Y-76434264D01*
X124769827Y-76494602D01*
X124769814Y-76494609D01*
X124638711Y-76582210D01*
X124638707Y-76582213D01*
X124527213Y-76693707D01*
X124527210Y-76693711D01*
X124439609Y-76824814D01*
X124439602Y-76824827D01*
X124379264Y-76970498D01*
X124379261Y-76970510D01*
X124348500Y-77125153D01*
X124348500Y-77282846D01*
X124379261Y-77437489D01*
X124379264Y-77437501D01*
X124439602Y-77583172D01*
X124439609Y-77583185D01*
X124527210Y-77714288D01*
X124527213Y-77714292D01*
X124638707Y-77825786D01*
X124638711Y-77825789D01*
X124769814Y-77913390D01*
X124769827Y-77913397D01*
X124905841Y-77969735D01*
X124915503Y-77973737D01*
X125020569Y-77994636D01*
X125070153Y-78004499D01*
X125070156Y-78004500D01*
X125146902Y-78004500D01*
X125213941Y-78024185D01*
X125259696Y-78076989D01*
X125269640Y-78146147D01*
X125240615Y-78209703D01*
X125234583Y-78216181D01*
X124119481Y-79331282D01*
X124119479Y-79331285D01*
X124085951Y-79389359D01*
X124085950Y-79389361D01*
X124040423Y-79468214D01*
X124040423Y-79468215D01*
X123999499Y-79620943D01*
X123999499Y-79620945D01*
X123999499Y-79789046D01*
X123999500Y-79789059D01*
X123999500Y-89670234D01*
X123979815Y-89737273D01*
X123978602Y-89739125D01*
X123890609Y-89870814D01*
X123890602Y-89870827D01*
X123830264Y-90016498D01*
X123830261Y-90016510D01*
X123799500Y-90171153D01*
X115501000Y-90171153D01*
X115501000Y-86696828D01*
X115520685Y-86629789D01*
X115562997Y-86589443D01*
X115699586Y-86510584D01*
X115839056Y-86393556D01*
X115956084Y-86254086D01*
X116047116Y-86096414D01*
X116109386Y-85925329D01*
X116141001Y-85746031D01*
X116141000Y-85654999D01*
X116141000Y-85589107D01*
X116141000Y-84495499D01*
X116141001Y-84443969D01*
X116109386Y-84264671D01*
X116047116Y-84093586D01*
X115956084Y-83935914D01*
X115956083Y-83935912D01*
X115956082Y-83935911D01*
X115839056Y-83796443D01*
X115699588Y-83679417D01*
X115562370Y-83600194D01*
X115514154Y-83549627D01*
X115500370Y-83492809D01*
X115500365Y-83260048D01*
X115500197Y-74756153D01*
X116099500Y-74756153D01*
X116099500Y-74913846D01*
X116130261Y-75068489D01*
X116130264Y-75068501D01*
X116190602Y-75214172D01*
X116190609Y-75214185D01*
X116278210Y-75345288D01*
X116278213Y-75345292D01*
X116389707Y-75456786D01*
X116389711Y-75456789D01*
X116520814Y-75544390D01*
X116520827Y-75544397D01*
X116666498Y-75604735D01*
X116666503Y-75604737D01*
X116773394Y-75625999D01*
X116821153Y-75635499D01*
X116821156Y-75635500D01*
X116821158Y-75635500D01*
X116978844Y-75635500D01*
X116978845Y-75635499D01*
X117133497Y-75604737D01*
X117279179Y-75544394D01*
X117293403Y-75534890D01*
X117380943Y-75476398D01*
X117447621Y-75455520D01*
X117449834Y-75455500D01*
X121485385Y-75455500D01*
X121552424Y-75475185D01*
X121554272Y-75476395D01*
X121641821Y-75534894D01*
X121641823Y-75534895D01*
X121641827Y-75534897D01*
X121787498Y-75595235D01*
X121787503Y-75595237D01*
X121942153Y-75625999D01*
X121942156Y-75626000D01*
X121942158Y-75626000D01*
X122099844Y-75626000D01*
X122099845Y-75625999D01*
X122254497Y-75595237D01*
X122377244Y-75544394D01*
X122400172Y-75534897D01*
X122400172Y-75534896D01*
X122400179Y-75534894D01*
X122531289Y-75447289D01*
X122642789Y-75335789D01*
X122730394Y-75204679D01*
X122790737Y-75058997D01*
X122821500Y-74904342D01*
X122821500Y-74746658D01*
X122821500Y-74746655D01*
X122821499Y-74746653D01*
X122810230Y-74690000D01*
X122790737Y-74592003D01*
X122780809Y-74568035D01*
X122730397Y-74446327D01*
X122730390Y-74446314D01*
X122642789Y-74315211D01*
X122642786Y-74315207D01*
X122531292Y-74203713D01*
X122531288Y-74203710D01*
X122400185Y-74116109D01*
X122400172Y-74116102D01*
X122254501Y-74055764D01*
X122254489Y-74055761D01*
X122099845Y-74025000D01*
X122099842Y-74025000D01*
X121942158Y-74025000D01*
X121942155Y-74025000D01*
X121787510Y-74055761D01*
X121787498Y-74055764D01*
X121641828Y-74116102D01*
X121641821Y-74116106D01*
X121615634Y-74133603D01*
X121548960Y-74154480D01*
X121546746Y-74154500D01*
X117360037Y-74154500D01*
X117292998Y-74134815D01*
X117291147Y-74133602D01*
X117279181Y-74125606D01*
X117279177Y-74125604D01*
X117133501Y-74065264D01*
X117133489Y-74065261D01*
X116978845Y-74034500D01*
X116978842Y-74034500D01*
X116821158Y-74034500D01*
X116821155Y-74034500D01*
X116666510Y-74065261D01*
X116666498Y-74065264D01*
X116520827Y-74125602D01*
X116520814Y-74125609D01*
X116389711Y-74213210D01*
X116389707Y-74213213D01*
X116278213Y-74324707D01*
X116278210Y-74324711D01*
X116190609Y-74455814D01*
X116190602Y-74455827D01*
X116130264Y-74601498D01*
X116130261Y-74601510D01*
X116099500Y-74756153D01*
X115500197Y-74756153D01*
X115500067Y-68186446D01*
X115500024Y-66000153D01*
X125740500Y-66000153D01*
X125740500Y-66157846D01*
X125771261Y-66312489D01*
X125771264Y-66312501D01*
X125831602Y-66458172D01*
X125831609Y-66458185D01*
X125919210Y-66589288D01*
X125919213Y-66589292D01*
X126030707Y-66700786D01*
X126030711Y-66700789D01*
X126161814Y-66788390D01*
X126161827Y-66788397D01*
X126307498Y-66848735D01*
X126307503Y-66848737D01*
X126462153Y-66879499D01*
X126462156Y-66879500D01*
X126462158Y-66879500D01*
X126619844Y-66879500D01*
X126619845Y-66879499D01*
X126774497Y-66848737D01*
X126920179Y-66788394D01*
X126957452Y-66763489D01*
X127051875Y-66700398D01*
X127118553Y-66679520D01*
X127120766Y-66679500D01*
X131828903Y-66679500D01*
X131895942Y-66699185D01*
X131916584Y-66715819D01*
X132145139Y-66944374D01*
X132145149Y-66944385D01*
X132149479Y-66948715D01*
X132149480Y-66948716D01*
X132261284Y-67060520D01*
X132261286Y-67060521D01*
X132261290Y-67060524D01*
X132321869Y-67095499D01*
X132321874Y-67095501D01*
X132398209Y-67139574D01*
X132398210Y-67139575D01*
X132398212Y-67139575D01*
X132398215Y-67139577D01*
X132550943Y-67180501D01*
X132550946Y-67180501D01*
X132716653Y-67180501D01*
X132716669Y-67180500D01*
X147785065Y-67180500D01*
X147852104Y-67200185D01*
X147853909Y-67201366D01*
X147910821Y-67239394D01*
X147910823Y-67239395D01*
X147910827Y-67239397D01*
X148056498Y-67299735D01*
X148056503Y-67299737D01*
X148211153Y-67330499D01*
X148211156Y-67330500D01*
X148211158Y-67330500D01*
X148368844Y-67330500D01*
X148368845Y-67330499D01*
X148523497Y-67299737D01*
X148669179Y-67239394D01*
X148800289Y-67151789D01*
X148911789Y-67040289D01*
X148999394Y-66909179D01*
X149059737Y-66763497D01*
X149090500Y-66608842D01*
X149090500Y-66451158D01*
X149090500Y-66451155D01*
X149090499Y-66451153D01*
X149062918Y-66312497D01*
X149059737Y-66296503D01*
X149007776Y-66171057D01*
X148999397Y-66150827D01*
X148999390Y-66150814D01*
X148911789Y-66019711D01*
X148911786Y-66019707D01*
X148800292Y-65908213D01*
X148800288Y-65908210D01*
X148669185Y-65820609D01*
X148669172Y-65820602D01*
X148523501Y-65760264D01*
X148523489Y-65760261D01*
X148368845Y-65729500D01*
X148368842Y-65729500D01*
X148211158Y-65729500D01*
X148211155Y-65729500D01*
X148056510Y-65760261D01*
X148056498Y-65760264D01*
X147910827Y-65820602D01*
X147910814Y-65820609D01*
X147779711Y-65908210D01*
X147779707Y-65908213D01*
X147744742Y-65943180D01*
X147683420Y-65976666D01*
X147657060Y-65979500D01*
X132930097Y-65979500D01*
X132863058Y-65959815D01*
X132842416Y-65943181D01*
X132616590Y-65717355D01*
X132616588Y-65717352D01*
X132497717Y-65598481D01*
X132497709Y-65598475D01*
X132377562Y-65529109D01*
X132377559Y-65529108D01*
X132360785Y-65519423D01*
X132208057Y-65478499D01*
X132049943Y-65478499D01*
X132042347Y-65478499D01*
X132042331Y-65478500D01*
X127120766Y-65478500D01*
X127053727Y-65458815D01*
X127051875Y-65457602D01*
X126920185Y-65369609D01*
X126920172Y-65369602D01*
X126774501Y-65309264D01*
X126774489Y-65309261D01*
X126619845Y-65278500D01*
X126619842Y-65278500D01*
X126462158Y-65278500D01*
X126462155Y-65278500D01*
X126307510Y-65309261D01*
X126307498Y-65309264D01*
X126161827Y-65369602D01*
X126161814Y-65369609D01*
X126030711Y-65457210D01*
X126030707Y-65457213D01*
X125919213Y-65568707D01*
X125919210Y-65568711D01*
X125831609Y-65699814D01*
X125831602Y-65699827D01*
X125771264Y-65845498D01*
X125771261Y-65845510D01*
X125740500Y-66000153D01*
X115500024Y-66000153D01*
X115500024Y-65994068D01*
X115500000Y-64801957D01*
X115500780Y-64788072D01*
X115510959Y-64697728D01*
X115517135Y-64670668D01*
X115544853Y-64591457D01*
X115556893Y-64566453D01*
X115601546Y-64495389D01*
X115618851Y-64473690D01*
X115678190Y-64414351D01*
X115699889Y-64397046D01*
X115770953Y-64352393D01*
X115795957Y-64340353D01*
X115875168Y-64312635D01*
X115902229Y-64306459D01*
X115978253Y-64297893D01*
X115992578Y-64296280D01*
X116006460Y-64295500D01*
X116065392Y-64295500D01*
X161384608Y-64295500D01*
X161443540Y-64295500D01*
X161457422Y-64296280D01*
G37*
%TD.AperFunction*%
%TD*%
M02*
