%TF.GenerationSoftware,KiCad,Pcbnew,10.0.1*%
%TF.CreationDate,2026-05-21T21:10:22+02:00*%
%TF.ProjectId,GBneprio,47426e65-7072-4696-9f2e-6b696361645f,rev?*%
%TF.SameCoordinates,Original*%
%TF.FileFunction,Profile,NP*%
%FSLAX46Y46*%
G04 Gerber Fmt 4.6, Leading zero omitted, Abs format (unit mm)*
G04 Created by KiCad (PCBNEW 10.0.1) date 2026-05-21 21:10:22*
%MOMM*%
%LPD*%
G01*
G04 APERTURE LIST*
%TA.AperFunction,Profile*%
%ADD10C,0.200000*%
%TD*%
G04 APERTURE END LIST*
%TO.C,J1*%
D10*
X114999500Y-64795000D02*
X114999881Y-83995000D01*
X115000500Y-83995000D02*
X115100500Y-83995000D01*
X115000500Y-86195000D02*
X115000500Y-115195000D01*
X115000500Y-86195000D02*
X115100500Y-86195000D01*
X115640500Y-85655000D02*
X115640500Y-84535000D01*
X116050500Y-115695000D02*
X115500501Y-115695000D01*
X116300502Y-122994998D02*
X116300500Y-115945000D01*
X117800939Y-124494559D02*
X164200941Y-124495435D01*
X161450500Y-63795000D02*
X115999500Y-63795000D01*
X162450500Y-64795000D02*
X162450500Y-65595000D01*
X165700502Y-122994998D02*
X165700500Y-115945000D01*
X166360500Y-85655000D02*
X166360500Y-84535000D01*
X166500500Y-66095000D02*
X162950500Y-66095000D01*
X166500500Y-115695000D02*
X165950500Y-115695000D01*
X167000500Y-83995000D02*
X166900500Y-83995000D01*
X167000500Y-83995000D02*
X167000500Y-66595000D01*
X167000500Y-86195000D02*
X166900500Y-86195000D01*
X167000500Y-115195000D02*
X167000500Y-86195000D01*
X114999500Y-64795000D02*
G75*
G02*
X115999500Y-63795000I999999J1D01*
G01*
X115100500Y-83995000D02*
G75*
G02*
X115640500Y-84535000I1J-539999D01*
G01*
X115500500Y-115695000D02*
G75*
G02*
X115000500Y-115195000I1J500001D01*
G01*
X115640500Y-85655000D02*
G75*
G02*
X115100500Y-86195000I-539999J-1D01*
G01*
X116050500Y-115695000D02*
G75*
G02*
X116300500Y-115945000I1J-249999D01*
G01*
X117800939Y-124494559D02*
G75*
G02*
X116300502Y-122994998I-438J1499999D01*
G01*
X161450500Y-63795000D02*
G75*
G02*
X162450500Y-64795000I0J-1000000D01*
G01*
X162950500Y-66095000D02*
G75*
G02*
X162450500Y-65595000I0J500000D01*
G01*
X165700500Y-115945000D02*
G75*
G02*
X165950500Y-115695000I250000J0D01*
G01*
X165700502Y-122994998D02*
G75*
G02*
X164200941Y-124495442I-1500002J-442D01*
G01*
X166360500Y-84535000D02*
G75*
G02*
X166900500Y-83995000I540000J0D01*
G01*
X166500500Y-66095000D02*
G75*
G02*
X167000500Y-66595000I0J-500000D01*
G01*
X166900500Y-86195000D02*
G75*
G02*
X166360500Y-85655000I0J540000D01*
G01*
X167000500Y-115195000D02*
G75*
G02*
X166500500Y-115695000I-500000J0D01*
G01*
X142100500Y-83625000D02*
G75*
G02*
X139900500Y-83625000I-1100000J0D01*
G01*
X139900500Y-83625000D02*
G75*
G02*
X142100500Y-83625000I1100000J0D01*
G01*
X144650500Y-108845000D02*
G75*
G02*
X137350500Y-108845000I-3650000J0D01*
G01*
X137350500Y-108845000D02*
G75*
G02*
X144650500Y-108845000I3650000J0D01*
G01*
%TD*%
M02*
