M48
; DRILL file KiCad 10.0.1 date 2026-05-21T21:10:25
; FORMAT={-:-/ absolute / metric / decimal}
; #@! TF.CreationDate,2026-05-21T21:10:25+02:00
; #@! TF.GenerationSoftware,Kicad,Pcbnew,10.0.1
; #@! TF.FileFunction,Plated,1,2,PTH
FMAT,2
METRIC
; #@! TA.AperFunction,Plated,PTH,ViaDrill
T1C0.300
; #@! TA.AperFunction,Plated,PTH,ComponentDrill
T2C1.500
%
G90
G05
T1
X116.59Y-97.47
X116.9Y-74.835
X117.6Y-90.9
X118.39Y-96.93
X118.772Y-93.75
X119.27Y-103.27
X119.89Y-103.87
X120.72Y-77.88
X121.73Y-70.78
X122.021Y-74.825
X122.25Y-111.46
X122.59Y-96.09
X122.874Y-112.06
X124.443Y-101.539
X124.45Y-102.43
X124.6Y-90.25
X125.149Y-77.204
X126.475Y-77.825
X126.541Y-66.079
X126.85Y-70.755
X126.85Y-81.52
X127.643Y-71.418
X127.687Y-74.335
X127.95Y-75.09
X130.06Y-66.68
X132.175Y-77.2
X132.72Y-74.96
X133.227Y-78.0
X137.653Y-74.172
X137.732Y-98.246
X138.136Y-93.754
X138.172Y-89.746
X139.41Y-75.1
X139.831Y-100.821
X141.89Y-88.75
X142.56Y-99.61
X143.642Y-72.097
X146.94Y-71.43
X147.63Y-70.66
X148.29Y-66.53
X149.51Y-76.6
X151.75Y-89.724
X156.649Y-98.248
X160.525Y-100.765
X160.63Y-93.78
X161.113Y-100.073
X161.328Y-99.302
X162.023Y-111.94
X162.646Y-111.34
X164.5Y-116.11
X164.5Y-117.06
T2
X155.74Y-70.88
X155.74Y-73.42
X155.74Y-75.96
X155.74Y-78.5
X155.74Y-81.04
X158.28Y-72.15
X158.28Y-74.69
X158.28Y-77.23
X158.28Y-79.77
X158.28Y-82.31
M30
