%TF.GenerationSoftware,KiCad,Pcbnew,10.0.1*%
%TF.CreationDate,2026-05-21T21:10:21+02:00*%
%TF.ProjectId,GBneprio,47426e65-7072-4696-9f2e-6b696361645f,rev?*%
%TF.SameCoordinates,Original*%
%TF.FileFunction,Copper,L1,Top*%
%TF.FilePolarity,Positive*%
%FSLAX46Y46*%
G04 Gerber Fmt 4.6, Leading zero omitted, Abs format (unit mm)*
G04 Created by KiCad (PCBNEW 10.0.1) date 2026-05-21 21:10:21*
%MOMM*%
%LPD*%
G01*
G04 APERTURE LIST*
G04 Aperture macros list*
%AMRoundRect*
0 Rectangle with rounded corners*
0 $1 Rounding radius*
0 $2 $3 $4 $5 $6 $7 $8 $9 X,Y pos of 4 corners*
0 Add a 4 corners polygon primitive as box body*
4,1,4,$2,$3,$4,$5,$6,$7,$8,$9,$2,$3,0*
0 Add four circle primitives for the rounded corners*
1,1,$1+$1,$2,$3*
1,1,$1+$1,$4,$5*
1,1,$1+$1,$6,$7*
1,1,$1+$1,$8,$9*
0 Add four rect primitives between the rounded corners*
20,1,$1+$1,$2,$3,$4,$5,0*
20,1,$1+$1,$4,$5,$6,$7,0*
20,1,$1+$1,$6,$7,$8,$9,0*
20,1,$1+$1,$8,$9,$2,$3,0*%
%AMOutline5P*
0 Free polygon, 5 corners , with rotation*
0 The origin of the aperture is its center*
0 number of corners: always 5*
0 $1 to $10 corner X, Y*
0 $11 Rotation angle, in degrees counterclockwise*
0 create outline with 5 corners*
4,1,5,$1,$2,$3,$4,$5,$6,$7,$8,$9,$10,$1,$2,$11*%
%AMOutline6P*
0 Free polygon, 6 corners , with rotation*
0 The origin of the aperture is its center*
0 number of corners: always 6*
0 $1 to $12 corner X, Y*
0 $13 Rotation angle, in degrees counterclockwise*
0 create outline with 6 corners*
4,1,6,$1,$2,$3,$4,$5,$6,$7,$8,$9,$10,$11,$12,$1,$2,$13*%
%AMOutline7P*
0 Free polygon, 7 corners , with rotation*
0 The origin of the aperture is its center*
0 number of corners: always 7*
0 $1 to $14 corner X, Y*
0 $15 Rotation angle, in degrees counterclockwise*
0 create outline with 7 corners*
4,1,7,$1,$2,$3,$4,$5,$6,$7,$8,$9,$10,$11,$12,$13,$14,$1,$2,$15*%
%AMOutline8P*
0 Free polygon, 8 corners , with rotation*
0 The origin of the aperture is its center*
0 number of corners: always 8*
0 $1 to $16 corner X, Y*
0 $17 Rotation angle, in degrees counterclockwise*
0 create outline with 8 corners*
4,1,8,$1,$2,$3,$4,$5,$6,$7,$8,$9,$10,$11,$12,$13,$14,$15,$16,$1,$2,$17*%
G04 Aperture macros list end*
%TA.AperFunction,SMDPad,CuDef*%
%ADD10RoundRect,0.237500X0.237500X-0.300000X0.237500X0.300000X-0.237500X0.300000X-0.237500X-0.300000X0*%
%TD*%
%TA.AperFunction,SMDPad,CuDef*%
%ADD11Outline5P,-0.625000X2.925000X0.625000X2.925000X0.625000X-2.925000X-0.187500X-2.925000X-0.625000X-2.487500X0.000000*%
%TD*%
%TA.AperFunction,SMDPad,CuDef*%
%ADD12R,1.000000X5.700000*%
%TD*%
%TA.AperFunction,SMDPad,CuDef*%
%ADD13Outline5P,-0.625000X2.925000X0.625000X2.925000X0.625000X-2.487500X0.187500X-2.925000X-0.625000X-2.925000X0.000000*%
%TD*%
%TA.AperFunction,SMDPad,CuDef*%
%ADD14RoundRect,0.237500X-0.237500X0.300000X-0.237500X-0.300000X0.237500X-0.300000X0.237500X0.300000X0*%
%TD*%
%TA.AperFunction,ComponentPad*%
%ADD15C,2.250000*%
%TD*%
%TA.AperFunction,SMDPad,CuDef*%
%ADD16R,1.300000X0.300000*%
%TD*%
%TA.AperFunction,SMDPad,CuDef*%
%ADD17R,1.500000X0.600000*%
%TD*%
%TA.AperFunction,SMDPad,CuDef*%
%ADD18R,0.600000X1.500000*%
%TD*%
%TA.AperFunction,ViaPad*%
%ADD19C,0.600000*%
%TD*%
%TA.AperFunction,Conductor*%
%ADD20C,0.300000*%
%TD*%
%TA.AperFunction,Conductor*%
%ADD21C,0.200000*%
%TD*%
G04 APERTURE END LIST*
D10*
%TO.P,C3,1*%
%TO.N,+5V*%
X117570000Y-93765000D03*
%TO.P,C3,2*%
%TO.N,GND*%
X117570000Y-92040000D03*
%TD*%
D11*
%TO.P,J1,1,VCC_1*%
%TO.N,+5V*%
X117625500Y-120620000D03*
D12*
%TO.P,J1,2,CLK~{}_2*%
%TO.N,/CLK*%
X119250500Y-120545000D03*
%TO.P,J1,3,WR_3*%
%TO.N,/WR*%
X120750500Y-120545000D03*
%TO.P,J1,4,RD_4*%
%TO.N,/RD*%
X122250500Y-120545000D03*
%TO.P,J1,5,CS_5*%
%TO.N,/CS*%
X123750500Y-120545000D03*
%TO.P,J1,6,A0_6*%
%TO.N,/A0*%
X125250500Y-120545000D03*
%TO.P,J1,7,A1_7*%
%TO.N,/A1*%
X126750500Y-120545000D03*
%TO.P,J1,8,A2_8*%
%TO.N,/A2*%
X128250500Y-120545000D03*
%TO.P,J1,9,A3_9*%
%TO.N,/A3*%
X129750500Y-120545000D03*
%TO.P,J1,10,A4_10*%
%TO.N,/A4*%
X131250500Y-120545000D03*
%TO.P,J1,11,A5_11*%
%TO.N,/A5*%
X132750500Y-120545000D03*
%TO.P,J1,12,A6_12*%
%TO.N,/A6*%
X134250500Y-120545000D03*
%TO.P,J1,13,A7_13*%
%TO.N,/A7*%
X135750500Y-120545000D03*
%TO.P,J1,14,A8_14*%
%TO.N,/A8*%
X137250500Y-120545000D03*
%TO.P,J1,15,A9_15*%
%TO.N,/A9*%
X138750500Y-120545000D03*
%TO.P,J1,16,A10_16*%
%TO.N,/A10*%
X140250500Y-120545000D03*
%TO.P,J1,17,A11_17*%
%TO.N,/A11*%
X141750500Y-120545000D03*
%TO.P,J1,18,A12_18*%
%TO.N,/A12*%
X143250500Y-120545000D03*
%TO.P,J1,19,A13_19*%
%TO.N,/A13*%
X144750500Y-120545000D03*
%TO.P,J1,20,A14_20*%
%TO.N,/A14*%
X146250500Y-120545000D03*
%TO.P,J1,21,A15_21*%
%TO.N,/A15*%
X147750500Y-120545000D03*
%TO.P,J1,22,D0_22*%
%TO.N,/D0*%
X149250500Y-120545000D03*
%TO.P,J1,23,D1_23*%
%TO.N,/D1*%
X150750500Y-120545000D03*
%TO.P,J1,24,D2_24*%
%TO.N,/D2*%
X152250500Y-120545000D03*
%TO.P,J1,25,D3_25*%
%TO.N,/D3*%
X153750500Y-120545000D03*
%TO.P,J1,26,D4_26*%
%TO.N,/D4*%
X155250500Y-120545000D03*
%TO.P,J1,27,D5_27*%
%TO.N,/D5*%
X156750500Y-120545000D03*
%TO.P,J1,28,D6_28*%
%TO.N,/D6*%
X158250500Y-120545000D03*
%TO.P,J1,29,D7_29*%
%TO.N,/D7*%
X159750500Y-120545000D03*
%TO.P,J1,30,RST_30*%
%TO.N,/RST*%
X161250500Y-120545000D03*
%TO.P,J1,31,SND_31*%
%TO.N,unconnected-(J1-SND-Pad31)*%
X162750500Y-120545000D03*
D13*
%TO.P,J1,32,GND_32*%
%TO.N,GND*%
X164375500Y-120620000D03*
%TD*%
D14*
%TO.P,C2,1*%
%TO.N,+5V*%
X139048000Y-71597500D03*
%TO.P,C2,2*%
%TO.N,GND*%
X139048000Y-73322500D03*
%TD*%
D15*
%TO.P,S1,1,1_1*%
%TO.N,/TCK*%
X155740000Y-70880000D03*
%TO.P,S1,2,2_2*%
%TO.N,GND*%
X158280000Y-72150000D03*
%TO.P,S1,3,3_3*%
%TO.N,/TDO*%
X155740000Y-73420000D03*
%TO.P,S1,4,4_4*%
%TO.N,+5V*%
X158280000Y-74690000D03*
%TO.P,S1,5,5_5*%
%TO.N,/TMS*%
X155740000Y-75960000D03*
%TO.P,S1,6,6_6*%
%TO.N,unconnected-(S1-Pad6)*%
X158280000Y-77230000D03*
%TO.P,S1,7,7_7*%
%TO.N,unconnected-(S1-Pad7)*%
X155740000Y-78500000D03*
%TO.P,S1,8,8_8*%
%TO.N,unconnected-(S1-Pad8)*%
X158280000Y-79770000D03*
%TO.P,S1,9,9_9*%
%TO.N,/TDI*%
X155740000Y-81040000D03*
%TO.P,S1,10,10_10*%
%TO.N,unconnected-(S1-Pad10)*%
X158280000Y-82310000D03*
%TD*%
D14*
%TO.P,C1,1*%
%TO.N,+5V*%
X120735000Y-74825500D03*
%TO.P,C1,2*%
%TO.N,GND*%
X120735000Y-76550500D03*
%TD*%
D16*
%TO.P,U2,1,A15_1*%
%TO.N,/HA3*%
X120150000Y-88250000D03*
%TO.P,U2,2,A14_2*%
%TO.N,/HA2*%
X120150000Y-88750000D03*
%TO.P,U2,3,A13_3*%
%TO.N,/HA1*%
X120150000Y-89250000D03*
%TO.P,U2,4,A12_4*%
%TO.N,/A13*%
X120150000Y-89750000D03*
%TO.P,U2,5,A11_5*%
%TO.N,/A12*%
X120150000Y-90250000D03*
%TO.P,U2,6,A10_6*%
%TO.N,/A11*%
X120150000Y-90750000D03*
%TO.P,U2,7,A9_7*%
%TO.N,/A10*%
X120150000Y-91250000D03*
%TO.P,U2,8,A8_8*%
%TO.N,/A9*%
X120150000Y-91750000D03*
%TO.P,U2,9,A19_9*%
%TO.N,/HA7*%
X120150000Y-92250000D03*
%TO.P,U2,10,NC_1_10*%
%TO.N,unconnected-(U2-NC_1-Pad10)*%
X120150000Y-92750000D03*
%TO.P,U2,11,WE#_11*%
%TO.N,/WR*%
X120150000Y-93250000D03*
%TO.P,U2,12,RP#_12*%
%TO.N,+5V*%
X120150000Y-93750000D03*
%TO.P,U2,13,NC_2_13*%
%TO.N,unconnected-(U2-NC_2-Pad13)*%
X120150000Y-94250000D03*
%TO.P,U2,14,NC_3_14*%
%TO.N,unconnected-(U2-NC_3-Pad14)*%
X120150000Y-94750000D03*
%TO.P,U2,15,R/B#_15*%
%TO.N,unconnected-(U2-R{slash}B#-Pad15)*%
X120150000Y-95250000D03*
%TO.P,U2,16,A18_16*%
%TO.N,/HA6*%
X120150000Y-95750000D03*
%TO.P,U2,17,A17_17*%
%TO.N,/HA5*%
X120150000Y-96250000D03*
%TO.P,U2,18,A7_18*%
%TO.N,/A8*%
X120150000Y-96750000D03*
%TO.P,U2,19,A6_19*%
%TO.N,/A7*%
X120150000Y-97250000D03*
%TO.P,U2,20,A5_20*%
%TO.N,/A6*%
X120150000Y-97750000D03*
%TO.P,U2,21,A4_21*%
%TO.N,/A5*%
X120150000Y-98250000D03*
%TO.P,U2,22,A3_22*%
%TO.N,/A4*%
X120150000Y-98750000D03*
%TO.P,U2,23,A2_23*%
%TO.N,/A3*%
X120150000Y-99250000D03*
%TO.P,U2,24,A1_24*%
%TO.N,/A2*%
X120150000Y-99750000D03*
%TO.P,U2,25,A0_25*%
%TO.N,/A1*%
X139850000Y-99750000D03*
%TO.P,U2,26,CE#_26*%
%TO.N,/A15*%
X139850000Y-99250000D03*
%TO.P,U2,27,VSS_1_27*%
%TO.N,GND*%
X139850000Y-98750000D03*
%TO.P,U2,28,OE#_28*%
%TO.N,/RD*%
X139850000Y-98250000D03*
%TO.P,U2,29,DQ0_29*%
%TO.N,/D0*%
X139850000Y-97750000D03*
%TO.P,U2,30,DQ8_30*%
%TO.N,unconnected-(U2-DQ8-Pad30)*%
X139850000Y-97250000D03*
%TO.P,U2,31,DQ1_31*%
%TO.N,/D1*%
X139850000Y-96750000D03*
%TO.P,U2,32,DQ9_32*%
%TO.N,unconnected-(U2-DQ9-Pad32)*%
X139850000Y-96250000D03*
%TO.P,U2,33,DQ2_33*%
%TO.N,/D2*%
X139850000Y-95750000D03*
%TO.P,U2,34,DQ10_34*%
%TO.N,unconnected-(U2-DQ10-Pad34)*%
X139850000Y-95250000D03*
%TO.P,U2,35,DQ3_35*%
%TO.N,/D3*%
X139850000Y-94750000D03*
%TO.P,U2,36,DQ11_36*%
%TO.N,unconnected-(U2-DQ11-Pad36)*%
X139850000Y-94250000D03*
%TO.P,U2,37,VCC_37*%
%TO.N,+5V*%
X139850000Y-93750000D03*
%TO.P,U2,38,DQ4_38*%
%TO.N,/D4*%
X139850000Y-93250000D03*
%TO.P,U2,39,DQ12_39*%
%TO.N,unconnected-(U2-DQ12-Pad39)*%
X139850000Y-92750000D03*
%TO.P,U2,40,DQ5_40*%
%TO.N,/D5*%
X139850000Y-92250000D03*
%TO.P,U2,41,DQ13_41*%
%TO.N,unconnected-(U2-DQ13-Pad41)*%
X139850000Y-91750000D03*
%TO.P,U2,42,DQ6_42*%
%TO.N,/D6*%
X139850000Y-91250000D03*
%TO.P,U2,43,DQ14_43*%
%TO.N,unconnected-(U2-DQ14-Pad43)*%
X139850000Y-90750000D03*
%TO.P,U2,44,DQ7_44*%
%TO.N,/D7*%
X139850000Y-90250000D03*
%TO.P,U2,45,DQ15A-1_45*%
%TO.N,/A0*%
X139850000Y-89750000D03*
%TO.P,U2,46,VSS_2_46*%
%TO.N,GND*%
X139850000Y-89250000D03*
%TO.P,U2,47,BYTE#_47*%
X139850000Y-88750000D03*
%TO.P,U2,48,A16_48*%
%TO.N,/HA4*%
X139850000Y-88250000D03*
%TD*%
D17*
%TO.P,U1,1,I/O/TDI_1*%
%TO.N,/TDI*%
X135000000Y-78000000D03*
%TO.P,U1,2,I/O_1_2*%
%TO.N,/CLK*%
X135000000Y-77200000D03*
%TO.P,U1,3,I/O_2_3*%
%TO.N,/A12*%
X135000000Y-76400000D03*
%TO.P,U1,4,GND_1_4*%
%TO.N,GND*%
X135000000Y-75600000D03*
%TO.P,U1,5,PD1/I/O_5*%
%TO.N,/A13*%
X135000000Y-74800000D03*
%TO.P,U1,6,I/O_3_6*%
%TO.N,/A14*%
X135000000Y-74000000D03*
%TO.P,U1,7,TMS/I/O_7*%
%TO.N,/TMS*%
X135000000Y-73200000D03*
%TO.P,U1,8,I/O_4_8*%
%TO.N,/A15*%
X135000000Y-72400000D03*
%TO.P,U1,9,VCC_1_9*%
%TO.N,+5V*%
X135000000Y-71600000D03*
%TO.P,U1,10,I/O_5_10*%
%TO.N,/D0*%
X135000000Y-70800000D03*
%TO.P,U1,11,I/O_6_11*%
%TO.N,/D1*%
X135000000Y-70000000D03*
D18*
%TO.P,U1,12,I/O_7_12*%
%TO.N,/D2*%
X133250000Y-68250000D03*
%TO.P,U1,13,I/O_8_13*%
%TO.N,/D3*%
X132450000Y-68250000D03*
%TO.P,U1,14,I/O_9_14*%
%TO.N,/D4*%
X131650000Y-68250000D03*
%TO.P,U1,15,I/O_10_15*%
%TO.N,/D5*%
X130850000Y-68250000D03*
%TO.P,U1,16,GND_2_16*%
%TO.N,GND*%
X130050000Y-68250000D03*
%TO.P,U1,17,VCC_2_17*%
%TO.N,+5V*%
X129250000Y-68250000D03*
%TO.P,U1,18,I/O_11_18*%
%TO.N,/D6*%
X128450000Y-68250000D03*
%TO.P,U1,19,PD2/I/O_19*%
%TO.N,/CS*%
X127650000Y-68250000D03*
%TO.P,U1,20,I/O_12_20*%
%TO.N,/RD*%
X126850000Y-68250000D03*
%TO.P,U1,21,I/O_13_21*%
%TO.N,/WR*%
X126050000Y-68250000D03*
%TO.P,U1,22,I/O_14_22*%
%TO.N,/RST*%
X125250000Y-68250000D03*
D17*
%TO.P,U1,23,I/O_15_23*%
%TO.N,/HA4*%
X123500000Y-70000000D03*
%TO.P,U1,24,GND_3_24*%
%TO.N,GND*%
X123500000Y-70800000D03*
%TO.P,U1,25,I/O_16_25*%
%TO.N,/HA5*%
X123500000Y-71600000D03*
%TO.P,U1,26,I/O/TCK_26*%
%TO.N,/TCK*%
X123500000Y-72400000D03*
%TO.P,U1,27,I/O_17_27*%
%TO.N,/HA6*%
X123500000Y-73200000D03*
%TO.P,U1,28,I/O_18_28*%
%TO.N,/HA7*%
X123500000Y-74000000D03*
%TO.P,U1,29,VCC_3_29*%
%TO.N,+5V*%
X123500000Y-74800000D03*
%TO.P,U1,30,I/O_19_30*%
%TO.N,/HA3*%
X123500000Y-75600000D03*
%TO.P,U1,31,I/O_20_31*%
%TO.N,/HA1*%
X123500000Y-76400000D03*
%TO.P,U1,32,I/O/TDO_32*%
%TO.N,/TDO*%
X123500000Y-77200000D03*
%TO.P,U1,33,I/O_21_33*%
%TO.N,/HA2*%
X123500000Y-78000000D03*
D18*
%TO.P,U1,34,I/O_22_34*%
%TO.N,unconnected-(U1-I{slash}O_22-Pad34)*%
X125250000Y-79750000D03*
%TO.P,U1,35,GCLK3/I/O_35*%
%TO.N,unconnected-(U1-GCLK3{slash}I{slash}O-Pad35)*%
X126050000Y-79750000D03*
%TO.P,U1,36,GND_4_36*%
%TO.N,GND*%
X126850000Y-79750000D03*
%TO.P,U1,37,GCLK1/I_37*%
%TO.N,unconnected-(U1-GCLK1{slash}I-Pad37)*%
X127650000Y-79750000D03*
%TO.P,U1,38,I/OE1_38*%
%TO.N,unconnected-(U1-I{slash}OE1-Pad38)*%
X128450000Y-79750000D03*
%TO.P,U1,39,GCLR/I_39*%
%TO.N,unconnected-(U1-GCLR{slash}I-Pad39)*%
X129250000Y-79750000D03*
%TO.P,U1,40,GCLK2/OE2/I_40*%
%TO.N,unconnected-(U1-GCLK2{slash}OE2{slash}I-Pad40)*%
X130050000Y-79750000D03*
%TO.P,U1,41,VCC_4_41*%
%TO.N,unconnected-(U1-VCC_4-Pad41)*%
X130850000Y-79750000D03*
%TO.P,U1,42,I/O_23_42*%
%TO.N,unconnected-(U1-I{slash}O_23-Pad42)*%
X131650000Y-79750000D03*
%TO.P,U1,43,I/O_24_43*%
%TO.N,unconnected-(U1-I{slash}O_24-Pad43)*%
X132450000Y-79750000D03*
%TO.P,U1,44,I/O_25_44*%
%TO.N,unconnected-(U1-I{slash}O_25-Pad44)*%
X133250000Y-79750000D03*
%TD*%
D19*
%TO.N,+5V*%
X118772000Y-93750000D03*
X138136000Y-93754000D03*
X160630000Y-93780000D03*
X122021000Y-74825500D03*
X116900000Y-74835000D03*
X116590000Y-97470000D03*
%TO.N,GND*%
X141890000Y-88750000D03*
X120720000Y-77880000D03*
X164500000Y-116110000D03*
X117600000Y-90900000D03*
X126850000Y-81520000D03*
X132720000Y-74960000D03*
X130060000Y-66680000D03*
X142560000Y-99610000D03*
X121730000Y-70780000D03*
X139410000Y-75100000D03*
X164500500Y-117060000D03*
%TO.N,/CLK*%
X149510000Y-76600000D03*
X161113424Y-100072689D03*
X119270000Y-103270000D03*
X132175000Y-77200000D03*
%TO.N,/WR*%
X119890000Y-103870000D03*
X160525000Y-100765000D03*
X126541000Y-66079000D03*
X118390000Y-96930000D03*
X122590000Y-96090000D03*
X148290000Y-66530000D03*
%TO.N,/RD*%
X122250000Y-111460000D03*
X147630000Y-70660000D03*
X126850000Y-70755000D03*
X162646000Y-111340000D03*
X137732000Y-98246000D03*
X156649500Y-98247500D03*
%TO.N,/CS*%
X162023000Y-111940000D03*
X127643000Y-71418000D03*
X122873609Y-112060000D03*
X146940000Y-71430000D03*
%TO.N,/A0*%
X124450000Y-102430000D03*
X161328000Y-99302000D03*
X138172000Y-89746000D03*
X151750000Y-89724000D03*
%TO.N,/A1*%
X139831000Y-100821000D03*
X124443337Y-101538808D03*
%TO.N,/A12*%
X126475000Y-77825000D03*
X124600000Y-90250000D03*
%TO.N,/TCK*%
X127950000Y-75090000D03*
%TO.N,/TDO*%
X125149000Y-77204000D03*
%TO.N,/TMS*%
X137653000Y-74172472D03*
%TO.N,/TDI*%
X133227000Y-78000000D03*
%TO.N,/HA4*%
X127686765Y-74334546D03*
X143642000Y-72097000D03*
%TD*%
%TO.N,+5V*%
D20*
X125940000Y-75850000D02*
X128500000Y-75850000D01*
X120150000Y-93750000D02*
X118772000Y-93750000D01*
X160630000Y-75170000D02*
X160150000Y-74690000D01*
X129260000Y-71600000D02*
X129250000Y-71590000D01*
X124890000Y-74800000D02*
X125940000Y-75850000D01*
X129250000Y-75100000D02*
X129250000Y-71590000D01*
X135000000Y-71600000D02*
X129260000Y-71600000D01*
X116900000Y-74878000D02*
X116927500Y-74850500D01*
X123474500Y-74825500D02*
X123500000Y-74800000D01*
X120735000Y-74825500D02*
X122021000Y-74825500D01*
X116590000Y-97470000D02*
X117500500Y-98380500D01*
X139850000Y-93750000D02*
X138140000Y-93750000D01*
X118772000Y-93750000D02*
X117607500Y-93750000D01*
X116590000Y-97470000D02*
X115800500Y-96680500D01*
X115800500Y-96680500D02*
X115800500Y-90096500D01*
X128500000Y-75850000D02*
X129250000Y-75100000D01*
X115800500Y-90096500D02*
X116900000Y-88997000D01*
X116900000Y-88997000D02*
X116900000Y-74878000D01*
X160150000Y-74690000D02*
X158280000Y-74690000D01*
X123500000Y-74800000D02*
X124890000Y-74800000D01*
X117500500Y-98380500D02*
X117500500Y-120695000D01*
X117607500Y-93750000D02*
X117601000Y-93756500D01*
X129250000Y-71590000D02*
X129250000Y-68250000D01*
X135000000Y-71600000D02*
X139045500Y-71600000D01*
X139045500Y-71600000D02*
X139048000Y-71597500D01*
X122021000Y-74825500D02*
X123474500Y-74825500D01*
X138140000Y-93750000D02*
X138136000Y-93754000D01*
X160630000Y-93780000D02*
X160630000Y-75170000D01*
%TO.N,GND*%
X121750000Y-70800000D02*
X121730000Y-70780000D01*
X130050000Y-68250000D02*
X130050000Y-66690000D01*
X139850000Y-98750000D02*
X141700000Y-98750000D01*
X139314765Y-74954765D02*
X139048000Y-74688000D01*
X126850000Y-79750000D02*
X126850000Y-81520000D01*
X139314765Y-75004765D02*
X139314765Y-74954765D01*
X164500500Y-116110500D02*
X164500000Y-116110000D01*
X120735000Y-76550500D02*
X120735000Y-77865000D01*
X141700000Y-98750000D02*
X142560000Y-99610000D01*
X139410000Y-75100000D02*
X139314765Y-75004765D01*
X117601000Y-90901000D02*
X117600000Y-90900000D01*
X139850000Y-88750000D02*
X139850000Y-89250000D01*
X120735000Y-77865000D02*
X120720000Y-77880000D01*
X164500500Y-120695000D02*
X164500500Y-117060000D01*
X164500500Y-117060000D02*
X164500500Y-116110500D01*
X123500000Y-70800000D02*
X121750000Y-70800000D01*
X130050000Y-66690000D02*
X130060000Y-66680000D01*
X139048000Y-74688000D02*
X139048000Y-73322500D01*
X117601000Y-92031500D02*
X117601000Y-90901000D01*
X135000000Y-75600000D02*
X133360000Y-75600000D01*
X133360000Y-75600000D02*
X132720000Y-74960000D01*
X139850000Y-88750000D02*
X141890000Y-88750000D01*
%TO.N,/CLK*%
D21*
X119270000Y-103270000D02*
X119280000Y-103280000D01*
X119250500Y-114150500D02*
X119250500Y-120545000D01*
X119280000Y-114121000D02*
X119250500Y-114150500D01*
X149510000Y-88423000D02*
X149510000Y-76600000D01*
X119280000Y-103280000D02*
X119280000Y-114121000D01*
X132175000Y-77200000D02*
X135000000Y-77200000D01*
X161113424Y-100072689D02*
X161113424Y-100026424D01*
X161113424Y-100026424D02*
X149510000Y-88423000D01*
%TO.N,/WR*%
X126050000Y-68250000D02*
X126050000Y-66570000D01*
X121860000Y-93250000D02*
X120150000Y-93250000D01*
X120750500Y-120545000D02*
X120750500Y-104730500D01*
X160525000Y-100765000D02*
X148290000Y-88530000D01*
X122590000Y-96090000D02*
X122590000Y-93980000D01*
X148290000Y-88530000D02*
X148290000Y-66530000D01*
X122590000Y-93980000D02*
X121860000Y-93250000D01*
X119890000Y-101300000D02*
X118390000Y-99800000D01*
X118390000Y-99800000D02*
X118390000Y-96930000D01*
X120750500Y-104730500D02*
X119890000Y-103870000D01*
X126050000Y-66570000D02*
X126541000Y-66079000D01*
X119890000Y-103870000D02*
X119890000Y-101300000D01*
%TO.N,/RD*%
X156649500Y-98210500D02*
X156649500Y-98247500D01*
X137736000Y-98250000D02*
X137732000Y-98246000D01*
X126850000Y-68250000D02*
X126850000Y-70755000D01*
X122250500Y-115618500D02*
X122250500Y-120545000D01*
X162646000Y-111340000D02*
X162646000Y-104244000D01*
X122250000Y-115618000D02*
X122250500Y-115618500D01*
X147630000Y-70660000D02*
X147630000Y-89191000D01*
X147630000Y-89191000D02*
X156649500Y-98210500D01*
X162646000Y-104244000D02*
X156649500Y-98247500D01*
X122250000Y-111460000D02*
X122250000Y-115618000D01*
X139850000Y-98250000D02*
X137736000Y-98250000D01*
%TO.N,/CS*%
X162023000Y-111940000D02*
X162023000Y-104788000D01*
X123750500Y-116280500D02*
X123750500Y-120545000D01*
X122873609Y-112060000D02*
X122873609Y-115403609D01*
X122873609Y-115403609D02*
X123750500Y-116280500D01*
X127650000Y-68250000D02*
X127650000Y-71411000D01*
X146940000Y-89705000D02*
X146940000Y-71430000D01*
X127650000Y-71411000D02*
X127643000Y-71418000D01*
X162023000Y-104788000D02*
X146940000Y-89705000D01*
%TO.N,/A0*%
X139846000Y-89746000D02*
X139850000Y-89750000D01*
X138172000Y-89746000D02*
X139846000Y-89746000D01*
X124450000Y-102430000D02*
X124450000Y-110700000D01*
X125250500Y-111500500D02*
X125250500Y-120545000D01*
X161328000Y-99302000D02*
X151750000Y-89724000D01*
X124450000Y-110700000D02*
X125250500Y-111500500D01*
%TO.N,/A1*%
X126750500Y-116963500D02*
X126750500Y-120545000D01*
X124443337Y-101565337D02*
X128840000Y-105962000D01*
X139831000Y-100821000D02*
X139831000Y-99769000D01*
X128840000Y-105962000D02*
X128840000Y-114874000D01*
X124443337Y-101538808D02*
X124443337Y-101565337D01*
X139831000Y-99769000D02*
X139850000Y-99750000D01*
X128840000Y-114874000D02*
X126750500Y-116963500D01*
%TO.N,/A2*%
X128250500Y-117037500D02*
X128250500Y-120545000D01*
X129546000Y-105156000D02*
X129546000Y-115742000D01*
X124140000Y-99750000D02*
X129546000Y-105156000D01*
X120150000Y-99750000D02*
X124140000Y-99750000D01*
X129546000Y-115742000D02*
X128250500Y-117037500D01*
%TO.N,/A3*%
X129750500Y-116908500D02*
X130236000Y-116423000D01*
X129750500Y-120545000D02*
X129750500Y-116908500D01*
X130236000Y-104971000D02*
X124515000Y-99250000D01*
X124515000Y-99250000D02*
X120150000Y-99250000D01*
X130236000Y-116423000D02*
X130236000Y-104971000D01*
%TO.N,/A4*%
X131250500Y-116756500D02*
X130944000Y-116450000D01*
X130944000Y-116450000D02*
X130944000Y-104771000D01*
X124923000Y-98750000D02*
X120150000Y-98750000D01*
X131250500Y-120545000D02*
X131250500Y-116756500D01*
X130944000Y-104771000D02*
X124923000Y-98750000D01*
%TO.N,/A5*%
X131625000Y-115688000D02*
X131625000Y-104547000D01*
X131625000Y-104547000D02*
X125328000Y-98250000D01*
X132750500Y-120545000D02*
X132750500Y-116813500D01*
X125328000Y-98250000D02*
X120150000Y-98250000D01*
X132750500Y-116813500D02*
X131625000Y-115688000D01*
%TO.N,/A6*%
X132388000Y-115080000D02*
X132388000Y-104355000D01*
X134250500Y-116942500D02*
X132388000Y-115080000D01*
X125783000Y-97750000D02*
X120150000Y-97750000D01*
X134250500Y-120545000D02*
X134250500Y-116942500D01*
X132388000Y-104355000D02*
X125783000Y-97750000D01*
%TO.N,/A7*%
X133014000Y-103959000D02*
X126305000Y-97250000D01*
X126305000Y-97250000D02*
X120150000Y-97250000D01*
X133014000Y-114235000D02*
X133014000Y-103959000D01*
X135750500Y-120545000D02*
X135750500Y-116971500D01*
X135750500Y-116971500D02*
X133014000Y-114235000D01*
%TO.N,/A8*%
X126787000Y-96751000D02*
X120151000Y-96751000D01*
X137250500Y-120545000D02*
X137250500Y-116982500D01*
X133695000Y-113427000D02*
X133695000Y-103659000D01*
X137250500Y-116982500D02*
X133695000Y-113427000D01*
X133695000Y-103659000D02*
X126787000Y-96751000D01*
X120151000Y-96751000D02*
X120150000Y-96750000D01*
%TO.N,/A9*%
X122888000Y-91750000D02*
X120150000Y-91750000D01*
X138750500Y-120545000D02*
X138750500Y-116966500D01*
X134448000Y-112664000D02*
X134448000Y-103310000D01*
X134448000Y-103310000D02*
X122888000Y-91750000D01*
X138750500Y-116966500D02*
X134448000Y-112664000D01*
%TO.N,/A10*%
X140250500Y-120545000D02*
X140250500Y-117085500D01*
X140250500Y-117085500D02*
X135157000Y-111992000D01*
X135157000Y-111992000D02*
X135157000Y-103065000D01*
X135157000Y-103065000D02*
X123342000Y-91250000D01*
X123342000Y-91250000D02*
X120150000Y-91250000D01*
%TO.N,/A11*%
X135910000Y-102729000D02*
X123931000Y-90750000D01*
X141750500Y-120545000D02*
X141750500Y-116934500D01*
X135910000Y-111094000D02*
X135910000Y-102729000D01*
X123931000Y-90750000D02*
X120150000Y-90750000D01*
X141750500Y-116934500D02*
X135910000Y-111094000D01*
%TO.N,/A12*%
X136636000Y-110504000D02*
X143250500Y-117118500D01*
X131500000Y-76050000D02*
X133173604Y-76050000D01*
X126475000Y-77825000D02*
X129725000Y-77825000D01*
X124600000Y-90250000D02*
X136636000Y-102286000D01*
X133523604Y-76400000D02*
X135000000Y-76400000D01*
X133173604Y-76050000D02*
X133523604Y-76400000D01*
X129725000Y-77825000D02*
X131500000Y-76050000D01*
X135075000Y-76325000D02*
X135000000Y-76400000D01*
X143250500Y-117118500D02*
X143250500Y-120545000D01*
X120150000Y-90250000D02*
X124600000Y-90250000D01*
X136636000Y-102286000D02*
X136636000Y-110504000D01*
%TO.N,/A13*%
X144750500Y-120545000D02*
X144750500Y-116176500D01*
X136676000Y-74800000D02*
X135000000Y-74800000D01*
X124275000Y-89300000D02*
X123825000Y-89750000D01*
X144750500Y-116176500D02*
X145251500Y-115675500D01*
X138483000Y-102877000D02*
X130050000Y-94444000D01*
X123825000Y-89750000D02*
X120150000Y-89750000D01*
X130050000Y-94444000D02*
X130050000Y-87000000D01*
X137650000Y-79400000D02*
X137650000Y-75774000D01*
X137650000Y-75774000D02*
X136676000Y-74800000D01*
X130050000Y-89300000D02*
X124275000Y-89300000D01*
X145251500Y-106011500D02*
X142117000Y-102877000D01*
X145251500Y-115675500D02*
X145251500Y-106011500D01*
X130050000Y-87000000D02*
X137650000Y-79400000D01*
X142117000Y-102877000D02*
X138483000Y-102877000D01*
%TO.N,/A14*%
X136632000Y-74000000D02*
X135000000Y-74000000D01*
X146250500Y-120545000D02*
X146250500Y-105552500D01*
X146250500Y-105552500D02*
X142804000Y-102106000D01*
X138275000Y-79390200D02*
X138275000Y-75643000D01*
X142804000Y-102106000D02*
X138946000Y-102106000D01*
X130886000Y-94046000D02*
X130886000Y-86779200D01*
X130886000Y-86779200D02*
X138275000Y-79390200D01*
X138946000Y-102106000D02*
X130886000Y-94046000D01*
X138275000Y-75643000D02*
X136632000Y-74000000D01*
%TO.N,/A15*%
X131675000Y-93730000D02*
X131675000Y-86557300D01*
X147739000Y-120533500D02*
X147739000Y-105593000D01*
X147750500Y-120545000D02*
X147739000Y-120533500D01*
X137624000Y-72400000D02*
X135000000Y-72400000D01*
X142818000Y-100672000D02*
X142332000Y-100672000D01*
X139850000Y-99250000D02*
X137195000Y-99250000D01*
X140910000Y-99250000D02*
X139850000Y-99250000D01*
X147739000Y-105593000D02*
X142818000Y-100672000D01*
X138253000Y-74912000D02*
X138253000Y-73029000D01*
X131675000Y-86557300D02*
X138875000Y-79357300D01*
X142332000Y-100672000D02*
X140910000Y-99250000D01*
X137195000Y-99250000D02*
X131675000Y-93730000D01*
X138875000Y-79357300D02*
X138875000Y-75534000D01*
X138253000Y-73029000D02*
X137624000Y-72400000D01*
X138875000Y-75534000D02*
X138253000Y-74912000D01*
%TO.N,/D0*%
X149250500Y-105100500D02*
X149250500Y-120545000D01*
X135044000Y-70756000D02*
X135000000Y-70800000D01*
X136456000Y-97340000D02*
X132463000Y-93347000D01*
X139801000Y-97701000D02*
X138483000Y-97701000D01*
X139850000Y-97750000D02*
X139801000Y-97701000D01*
X139850000Y-97750000D02*
X141900000Y-97750000D01*
X132463000Y-86336400D02*
X140029000Y-78770400D01*
X139627000Y-70756000D02*
X135044000Y-70756000D01*
X140029000Y-71158000D02*
X139627000Y-70756000D01*
X132463000Y-93347000D02*
X132463000Y-86336400D01*
X141900000Y-97750000D02*
X149250500Y-105100500D01*
X138122000Y-97340000D02*
X136456000Y-97340000D01*
X138483000Y-97701000D02*
X138122000Y-97340000D01*
X140029000Y-78770400D02*
X140029000Y-71158000D01*
%TO.N,/D1*%
X141741000Y-96750000D02*
X150750500Y-105759500D01*
X140516000Y-70608900D02*
X139907100Y-70000000D01*
X150750500Y-105759500D02*
X150750500Y-120545000D01*
X139907100Y-70000000D02*
X135000000Y-70000000D01*
X139850000Y-96750000D02*
X141741000Y-96750000D01*
X133140000Y-92744000D02*
X133140000Y-86226500D01*
X133140000Y-86226500D02*
X140516000Y-78850500D01*
X137146000Y-96750000D02*
X133140000Y-92744000D01*
X139850000Y-96750000D02*
X137146000Y-96750000D01*
X140516000Y-78850500D02*
X140516000Y-70608900D01*
%TO.N,/D2*%
X141012000Y-69816000D02*
X139446000Y-68250000D01*
X139446000Y-68250000D02*
X133250000Y-68250000D01*
X139850000Y-95750000D02*
X137358000Y-95750000D01*
X133841000Y-86092600D02*
X141012000Y-78921600D01*
X137358000Y-95750000D02*
X133841000Y-92233000D01*
X152250500Y-120545000D02*
X152250500Y-105706500D01*
X133841000Y-92233000D02*
X133841000Y-86092600D01*
X152250500Y-105706500D02*
X142294000Y-95750000D01*
X142294000Y-95750000D02*
X139850000Y-95750000D01*
X141012000Y-78921600D02*
X141012000Y-69816000D01*
%TO.N,/D3*%
X141563000Y-78937700D02*
X134590000Y-85910700D01*
X153750500Y-120545000D02*
X153736000Y-120530500D01*
X137666000Y-94750000D02*
X139850000Y-94750000D01*
X153736000Y-120530500D02*
X153736000Y-105667000D01*
X142819000Y-94750000D02*
X139850000Y-94750000D01*
X132450000Y-66673000D02*
X132860000Y-66263000D01*
X141563000Y-68128000D02*
X141563000Y-78937700D01*
X132450000Y-68250000D02*
X132450000Y-66673000D01*
X139698000Y-66263000D02*
X141563000Y-68128000D01*
X134590000Y-91674000D02*
X137666000Y-94750000D01*
X153736000Y-105667000D02*
X142819000Y-94750000D01*
X134590000Y-85910700D02*
X134590000Y-91674000D01*
X132860000Y-66263000D02*
X139698000Y-66263000D01*
%TO.N,/D4*%
X142806000Y-93253000D02*
X139853000Y-93253000D01*
X132144000Y-65862000D02*
X131650000Y-66356000D01*
X139850000Y-93250000D02*
X138562000Y-93250000D01*
X131650000Y-66356000D02*
X131650000Y-68250000D01*
X155250500Y-120545000D02*
X155259000Y-120536500D01*
X142053000Y-79014800D02*
X142053000Y-68050900D01*
X139853000Y-93253000D02*
X139850000Y-93250000D01*
X138562000Y-93250000D02*
X138115000Y-92803000D01*
X155259000Y-120536500D02*
X155259000Y-105706000D01*
X139864100Y-65862000D02*
X132144000Y-65862000D01*
X135189000Y-85878800D02*
X142053000Y-79014800D01*
X142053000Y-68050900D02*
X139864100Y-65862000D01*
X155259000Y-105706000D02*
X142806000Y-93253000D01*
X137010000Y-92803000D02*
X135189000Y-90982000D01*
X138115000Y-92803000D02*
X137010000Y-92803000D01*
X135189000Y-90982000D02*
X135189000Y-85878800D01*
%TO.N,/D5*%
X137787000Y-92250000D02*
X135775000Y-90238000D01*
X135775000Y-85859900D02*
X142641000Y-78993900D01*
X142641000Y-68071800D02*
X140030200Y-65461000D01*
X142641000Y-78993900D02*
X142641000Y-68071800D01*
X135775000Y-90238000D02*
X135775000Y-85859900D01*
X140030200Y-65461000D02*
X131578000Y-65461000D01*
X143397000Y-92250000D02*
X156750500Y-105603500D01*
X130850000Y-66189000D02*
X130850000Y-68250000D01*
X139850000Y-92250000D02*
X137787000Y-92250000D01*
X156750500Y-105603500D02*
X156750500Y-120545000D01*
X131578000Y-65461000D02*
X130850000Y-66189000D01*
X139850000Y-92250000D02*
X143397000Y-92250000D01*
%TO.N,/D6*%
X128450000Y-68250000D02*
X128450000Y-66438000D01*
X136456000Y-85746000D02*
X136456000Y-89609000D01*
X136456000Y-89609000D02*
X138097000Y-91250000D01*
X143799000Y-91250000D02*
X139850000Y-91250000D01*
X158250500Y-120545000D02*
X158250500Y-105701500D01*
X143042000Y-67905700D02*
X143042000Y-79160000D01*
X138097000Y-91250000D02*
X139850000Y-91250000D01*
X129828000Y-65060000D02*
X140196300Y-65060000D01*
X158250500Y-105701500D02*
X143799000Y-91250000D01*
X140196300Y-65060000D02*
X143042000Y-67905700D01*
X143042000Y-79160000D02*
X136456000Y-85746000D01*
X128450000Y-66438000D02*
X129828000Y-65060000D01*
%TO.N,/D7*%
X144447000Y-90250000D02*
X139850000Y-90250000D01*
X159750500Y-120545000D02*
X159750500Y-105553500D01*
X159750500Y-105553500D02*
X144447000Y-90250000D01*
%TO.N,/RST*%
X140362400Y-64659000D02*
X126974000Y-64659000D01*
X161250500Y-105499500D02*
X146050000Y-90299000D01*
X146050000Y-90299000D02*
X146050000Y-70346600D01*
X125250000Y-66383000D02*
X125250000Y-68250000D01*
X146050000Y-70346600D02*
X140362400Y-64659000D01*
X126974000Y-64659000D02*
X125250000Y-66383000D01*
X161250500Y-120545000D02*
X161250500Y-105499500D01*
%TO.N,/TCK*%
X125950000Y-74000000D02*
X125950000Y-73340000D01*
X127950000Y-75090000D02*
X127040000Y-75090000D01*
X125010000Y-72400000D02*
X123500000Y-72400000D01*
X125950000Y-73340000D02*
X125010000Y-72400000D01*
X127040000Y-75090000D02*
X125950000Y-74000000D01*
%TO.N,/TDO*%
X125145000Y-77200000D02*
X125149000Y-77204000D01*
X123500000Y-77200000D02*
X125145000Y-77200000D01*
%TO.N,/TMS*%
X137653000Y-74172472D02*
X137622472Y-74172472D01*
X137622472Y-74172472D02*
X136650000Y-73200000D01*
X136650000Y-73200000D02*
X135000000Y-73200000D01*
%TO.N,/TDI*%
X135000000Y-78000000D02*
X133227000Y-78000000D01*
%TO.N,/HA3*%
X122387000Y-75600000D02*
X123500000Y-75600000D01*
X121839000Y-76148000D02*
X122387000Y-75600000D01*
X121520000Y-88250000D02*
X121839000Y-87931000D01*
X120150000Y-88250000D02*
X121520000Y-88250000D01*
X121839000Y-87931000D02*
X121839000Y-76148000D01*
%TO.N,/HA2*%
X120150000Y-88750000D02*
X122743000Y-88750000D01*
X122743000Y-88750000D02*
X123500000Y-87993000D01*
X123500000Y-87993000D02*
X123500000Y-78000000D01*
%TO.N,/HA1*%
X124226000Y-88142000D02*
X124226000Y-79210000D01*
X125579000Y-76400000D02*
X123500000Y-76400000D01*
X123118000Y-89250000D02*
X124226000Y-88142000D01*
X125905000Y-77531000D02*
X125905000Y-76726000D01*
X124226000Y-79210000D02*
X125905000Y-77531000D01*
X125905000Y-76726000D02*
X125579000Y-76400000D01*
X120150000Y-89250000D02*
X123118000Y-89250000D01*
%TO.N,/HA7*%
X118704000Y-75410000D02*
X120127000Y-73987000D01*
X120127000Y-73987000D02*
X123487000Y-73987000D01*
X119081000Y-92250000D02*
X118704000Y-91873000D01*
X120150000Y-92250000D02*
X119081000Y-92250000D01*
X123487000Y-73987000D02*
X123500000Y-74000000D01*
X118704000Y-91873000D02*
X118704000Y-75410000D01*
%TO.N,/HA6*%
X118256000Y-89348000D02*
X116652500Y-90951500D01*
X123500000Y-73200000D02*
X120284000Y-73200000D01*
X117539000Y-95750000D02*
X120150000Y-95750000D01*
X118256000Y-75228000D02*
X118256000Y-89348000D01*
X116652500Y-94863500D02*
X117539000Y-95750000D01*
X116652500Y-90951500D02*
X116652500Y-94863500D01*
X120284000Y-73200000D02*
X118256000Y-75228000D01*
%TO.N,/HA5*%
X117808000Y-89130000D02*
X117808000Y-75059000D01*
X117471900Y-96250000D02*
X116251500Y-95029600D01*
X116251500Y-95029600D02*
X116251500Y-90686500D01*
X120150000Y-96250000D02*
X117471900Y-96250000D01*
X116251500Y-90686500D02*
X117808000Y-89130000D01*
X121267000Y-71600000D02*
X123500000Y-71600000D01*
X117808000Y-75059000D02*
X121267000Y-71600000D01*
%TO.N,/HA4*%
X125270000Y-71900000D02*
X125270000Y-70442000D01*
X124828000Y-70000000D02*
X123500000Y-70000000D01*
X141260000Y-88250000D02*
X143642000Y-85868000D01*
X126920000Y-73550000D02*
X125270000Y-71900000D01*
X125270000Y-70442000D02*
X124828000Y-70000000D01*
X127686765Y-74334546D02*
X126920000Y-73567781D01*
X139850000Y-88250000D02*
X141260000Y-88250000D01*
X126920000Y-73567781D02*
X126920000Y-73550000D01*
X143642000Y-85868000D02*
X143642000Y-72097000D01*
%TD*%
M02*
