%TF.GenerationSoftware,KiCad,Pcbnew,10.0.1*%
%TF.CreationDate,2026-05-21T21:10:22+02:00*%
%TF.ProjectId,GBneprio,47426e65-7072-4696-9f2e-6b696361645f,rev?*%
%TF.SameCoordinates,Original*%
%TF.FileFunction,Soldermask,Top*%
%TF.FilePolarity,Negative*%
%FSLAX46Y46*%
G04 Gerber Fmt 4.6, Leading zero omitted, Abs format (unit mm)*
G04 Created by KiCad (PCBNEW 10.0.1) date 2026-05-21 21:10:22*
%MOMM*%
%LPD*%
G01*
G04 APERTURE LIST*
G04 Aperture macros list*
%AMRoundRect*
0 Rectangle with rounded corners*
0 $1 Rounding radius*
0 $2 $3 $4 $5 $6 $7 $8 $9 X,Y pos of 4 corners*
0 Add a 4 corners polygon primitive as box body*
4,1,4,$2,$3,$4,$5,$6,$7,$8,$9,$2,$3,0*
0 Add four circle primitives for the rounded corners*
1,1,$1+$1,$2,$3*
1,1,$1+$1,$4,$5*
1,1,$1+$1,$6,$7*
1,1,$1+$1,$8,$9*
0 Add four rect primitives between the rounded corners*
20,1,$1+$1,$2,$3,$4,$5,0*
20,1,$1+$1,$4,$5,$6,$7,0*
20,1,$1+$1,$6,$7,$8,$9,0*
20,1,$1+$1,$8,$9,$2,$3,0*%
G04 Aperture macros list end*
%ADD10RoundRect,0.237500X0.237500X-0.300000X0.237500X0.300000X-0.237500X0.300000X-0.237500X-0.300000X0*%
%ADD11RoundRect,0.237500X-0.237500X0.300000X-0.237500X-0.300000X0.237500X-0.300000X0.237500X0.300000X0*%
%ADD12C,2.500000*%
%ADD13C,2.250000*%
%ADD14R,1.300000X0.300000*%
%ADD15R,1.500000X0.600000*%
%ADD16R,0.600000X1.500000*%
G04 APERTURE END LIST*
%TO.C,J1*%
G36*
X116310500Y-117695200D02*
G01*
X165710500Y-117695200D01*
X165710500Y-124504800D01*
X116310500Y-124504800D01*
X116310500Y-117695200D01*
G37*
%TD*%
D10*
%TO.C,C3*%
X117570000Y-93765000D03*
X117570000Y-92040000D03*
%TD*%
D11*
%TO.C,C2*%
X139048000Y-71597500D03*
X139048000Y-73322500D03*
%TD*%
D12*
%TO.C,S1*%
X158280000Y-69650000D03*
X155740000Y-83540000D03*
D13*
X155740000Y-70880000D03*
X158280000Y-72150000D03*
X155740000Y-73420000D03*
X158280000Y-74690000D03*
X155740000Y-75960000D03*
X158280000Y-77230000D03*
X155740000Y-78500000D03*
X158280000Y-79770000D03*
X155740000Y-81040000D03*
X158280000Y-82310000D03*
%TD*%
D11*
%TO.C,C1*%
X120735000Y-74825500D03*
X120735000Y-76550500D03*
%TD*%
D14*
%TO.C,U2*%
X120150000Y-88250000D03*
X120150000Y-88750000D03*
X120150000Y-89250000D03*
X120150000Y-89750000D03*
X120150000Y-90250000D03*
X120150000Y-90750000D03*
X120150000Y-91250000D03*
X120150000Y-91750000D03*
X120150000Y-92250000D03*
X120150000Y-92750000D03*
X120150000Y-93250000D03*
X120150000Y-93750000D03*
X120150000Y-94250000D03*
X120150000Y-94750000D03*
X120150000Y-95250000D03*
X120150000Y-95750000D03*
X120150000Y-96250000D03*
X120150000Y-96750000D03*
X120150000Y-97250000D03*
X120150000Y-97750000D03*
X120150000Y-98250000D03*
X120150000Y-98750000D03*
X120150000Y-99250000D03*
X120150000Y-99750000D03*
X139850000Y-99750000D03*
X139850000Y-99250000D03*
X139850000Y-98750000D03*
X139850000Y-98250000D03*
X139850000Y-97750000D03*
X139850000Y-97250000D03*
X139850000Y-96750000D03*
X139850000Y-96250000D03*
X139850000Y-95750000D03*
X139850000Y-95250000D03*
X139850000Y-94750000D03*
X139850000Y-94250000D03*
X139850000Y-93750000D03*
X139850000Y-93250000D03*
X139850000Y-92750000D03*
X139850000Y-92250000D03*
X139850000Y-91750000D03*
X139850000Y-91250000D03*
X139850000Y-90750000D03*
X139850000Y-90250000D03*
X139850000Y-89750000D03*
X139850000Y-89250000D03*
X139850000Y-88750000D03*
X139850000Y-88250000D03*
%TD*%
D15*
%TO.C,U1*%
X135000000Y-78000000D03*
X135000000Y-77200000D03*
X135000000Y-76400000D03*
X135000000Y-75600000D03*
X135000000Y-74800000D03*
X135000000Y-74000000D03*
X135000000Y-73200000D03*
X135000000Y-72400000D03*
X135000000Y-71600000D03*
X135000000Y-70800000D03*
X135000000Y-70000000D03*
D16*
X133250000Y-68250000D03*
X132450000Y-68250000D03*
X131650000Y-68250000D03*
X130850000Y-68250000D03*
X130050000Y-68250000D03*
X129250000Y-68250000D03*
X128450000Y-68250000D03*
X127650000Y-68250000D03*
X126850000Y-68250000D03*
X126050000Y-68250000D03*
X125250000Y-68250000D03*
D15*
X123500000Y-70000000D03*
X123500000Y-70800000D03*
X123500000Y-71600000D03*
X123500000Y-72400000D03*
X123500000Y-73200000D03*
X123500000Y-74000000D03*
X123500000Y-74800000D03*
X123500000Y-75600000D03*
X123500000Y-76400000D03*
X123500000Y-77200000D03*
X123500000Y-78000000D03*
D16*
X125250000Y-79750000D03*
X126050000Y-79750000D03*
X126850000Y-79750000D03*
X127650000Y-79750000D03*
X128450000Y-79750000D03*
X129250000Y-79750000D03*
X130050000Y-79750000D03*
X130850000Y-79750000D03*
X131650000Y-79750000D03*
X132450000Y-79750000D03*
X133250000Y-79750000D03*
%TD*%
M02*
